<svg viewBox="0 0 427 815" xmlns="http://www.w3.org/2000/svg" fill-rule="evenodd" clip-rule="evenodd" stroke-linejoin="round" stroke-miterlimit="2"><path d="M316.236 1628.94s.835-4.08.564-12.54c-2-16.13-3.733-54.93-4-89.07-.133-41.73-1.067-37.06 10.533-56 3.2-5.2 6.8-12.53 8-16.53 3.734-11.33 2.267-30.93-5.066-66.8-7.867-39.07-9.467-53.73-8.667-85.6.533-21.6 1.6-31.33 6.267-60.4 10.933-68.8 13.066-79.73 23.066-114.53 6.134-21.6 11.067-42.8 13.067-56.8 2.8-19.07 5.467-22.8 8.933-12.67.934 2.8 3.334 13.6 5.2 23.87 4.534 24.66 8.4 37.6 15.734 52.8 3.333 6.8 6.133 13.46 6.133 14.66 0 4.94 4.267 17.87 12 36 12.667 29.74 32.133 88.67 36 108.67 3.2 16.53 4.266 20 10.8 34.13 3.6 8 7.333 18 8.4 22.14 2 8.8 5.066 15.33 14.133 29.73 3.467 5.47 7.467 12.67 8.933 16 1.467 3.33 6.4 11.6 10.8 18.4 4.534 6.93 8.934 15.07 9.734 18 2.533 9.6 5.733 16 11.2 22.93 13.066 16.4 41.6 70.4 49.466 93.47 3.334 9.87 3.6 12.67 4.534 43.2.551 18.03.016 27.08 0 27.99 0 0 2.683 8.94 6.666 8.95 94.509.03 85.326.14 103.867 0 4.32-.04 6.763-8.95 6.763-8.95s-.823-17.5-1.296-22.79c-1.067-12.27-2.4-19.2-5.467-27.73-12-33.6-16.267-52.14-27.2-120.8-10.267-63.87-13.333-73.2-42.533-132.4-22.534-45.74-28.267-60.8-34.134-90.54-2.133-11.2-6.133-26.93-8.666-35.06-7.2-22-8.667-32-12-82.4-2.8-40.67-4.934-50.67-16.667-77.47-5.2-12.13-10.4-25.87-11.467-30.53-2.133-9.07-1.866-11.203 2.8-28.27 2.934-10.533 2.667-34.933-.533-50-1.333-6.667-5.6-20-9.467-29.867-10.666-27.6-10.8-29.066-14-113.466-1.066-28.267-2.266-60.8-2.8-72.267-.4-11.466-.4-25.866.134-31.866.8-9.6 1.466-11.6 4.666-14.8 5.867-5.734 11.867-5.2 18.934 1.733 16 15.6 58.4 38 77.466 40.933 18.934 2.934 41.467-8.133 54.934-27.066 8-11.2 10.8-18.134 14-35.6 1.6-8.267 5.2-26.8 8.266-41.067 6.534-31.6 6.4-38.8-.8-64.533-6.8-24.4-8.666-36.4-10.266-68.134-1.067-20-1.2-32.133-.134-42.533 1.334-13.733 1.867-15.333 10.134-32.667 9.733-20.266 11.066-24.533 12.266-38.8.534-5.466 2-12.666 3.334-16 1.466-3.333 4.4-14.666 6.533-25.333 5.2-24.8 8.267-34.133 15.2-47.333 10-18.934 24.4-37.734 67.467-88 11.066-13.067 24.8-29.734 30.4-37.2 5.6-7.334 14-18.267 18.8-24.134 12.666-15.733 14-19.2 12.8-36.533-1.2-17.733-.267-20 13.333-36.667 14.933-18.533 17.2-26 9.867-32.933C868.8 3.734 858.133 0 851.466 0c-2.266.134-6.4.934-9.2 2C833.6 5.067 825.2 13.467 813.2 31.067c-20.134 29.6-38.8 50.933-92.667 106.267-18.8 19.466-49.733 52.133-68.4 72.666-47.733 52.134-80.8 84.8-108.533 106.934-37.867 30.266-52.4 46.133-67.334 73.733-3.866 6.933-9.866 16.4-13.466 21.067-6.534 8.4-6.667 8.533-8.534 5.333-8.933-14.8-11.733-18.667-18.266-25.467-4-4.4-12.667-11.733-19.333-16.4-6.534-4.666-14.534-11.466-17.6-15.066-3.2-3.6-12.934-12.4-21.867-19.6L361.067 327.6l.533-31.466c.667-34 1.067-36.534 8.4-46.8 6.667-9.467 8-14.134 8-28 0-11.467-.4-13.467-4.267-21.6-8.133-17.2-24.533-35.067-48.4-52.667-29.066-21.467-50.4-32.667-67.066-35.333-12.4-1.867-26.4.533-46.134 7.866-33.466 12.4-47.733 24.134-62.266 51.6-7.2 13.467-11.734 27.734-15.467 47.467-2.533 12.667-2.933 20.267-3.067 44 0 33.6.8 36.533 13.067 48.4 11.6 11.2 20.267 15.6 37.333 18.933 8 1.6 31.6 30.534 31.6 38.667 0 9.733-27.333 34.133-48.8 43.333-24.133 10.667-30.933 14.934-50.933 32.667-22.933 20.267-26.667 24.267-29.2 31.6-.933 2.933-3.6 8-5.867 11.2-6.266 9.2-11.333 20.267-14.533 31.867-1.6 5.866-5.467 16.266-8.667 22.933C48.133 557.6 44.933 570 40.667 600c-4.4 31.067-6.8 42-12.267 58.667-4 11.733-4.8 16.4-5.333 29.6-.934 19.6 1.466 31.333 10 48.133C38 746.534 41.2 750.8 51.2 760.667c14.4 14.4 26.8 21.2 48.8 26.667 16.267 4.133 20.8 6.4 22.667 11.733 1.866 5.733 1.6 14.533-.534 17.733-1.066 1.467-5.866 4.667-10.666 7.067-16.267 8-27.467 24.4-31.067 45.333-1.2 7.333-3.467 14.4-6.133 19.467L70 896.533v28.8c.133 36.934 4 70.134 9.733 83.197 4.934 10.94 22.8 27.34 38.134 34.8 3.866 1.87 11.2 4 16 4.8 12.933 1.74 16.133 3.74 19.333 12.54 9.067 24.13 16.133 102.4 16.133 178.66 0 49.2-1.2 65.07-6.666 87.74-5.2 21.6-6.667 37.86-6.667 73.73v29.87l16.4 20.4c21.333 26.26 22.8 29.33 23.333 48.4 1.2 34.53-5.333 49.46-29.6 67.73-15.066 11.33-23.807 16.2-37.066 16.67-16.856.59-24.8 8.83-25.199 21.26-.337 10.49 2.604 24.38 9.732 23.81h202.636z" fill-rule="nonzero" transform="matrix(.49979 0 0 .5003 -11.714 .482)" id="soldier"/></svg>