<svg viewBox="0 0 782 1042" xmlns="http://www.w3.org/2000/svg" fill-rule="evenodd" clip-rule="evenodd" stroke-linejoin="round" stroke-miterlimit="2"><path d="M276 1037c0 2-5 3-8 4h-11l-16-1-33-16-3-4-2-3 6-46v-3l-2-8c-2-5-2-6-2-15 0-11 0-16-2-20-2-2-4-14-4-20a54 54 0 00-2-18v-3l-1-1-1-16a1523 1523 0 01-3-36 149 149 0 013-41 375 375 0 00-2-64v-4c-2 0-2-3-2-9l-1-7-1-9a140 140 0 00-2-25v-9a246 246 0 01-1-23l-3 6c-3 3-3 4-5 4l-3-1h-2-2c-2 0-3-2-4-5 0-2-1-2-2-2l-2-2-1-3-1-10-1-9v-1c1 0 2-6 1-7l-1-12-1-13v-4-1l-1 1-5-1a188 188 0 00-13-1l-11-1-7-1-2-20c-1-8 0-10 1-11l2-2 1-1c0-2 2-2 2 0 0 4 1 3 1-1v-4l-1 1-2 2-31 30a751 751 0 01-63 60c-3 1-8 4-11 4l-2-2c-2-2-7-12-10-23-7-20-9-29-5-33l2-3 3-1 20-14a6746 6746 0 0073-42c5-2 6-3 11-3l5-1v-3h-2c-3 1-7 0-11-2-5-2-6-3-12-15l-6-12c-2-2-3-6-3-10l-3-8-2-6-2-4c-4-6-5-9-10-25l-3-7-1-6-1-2a130 130 0 01-16-39l-2-4-3-10-2-14c0-9 1-10 10-13l7-5 16-8c4-1 6-2 11-6a457 457 0 0124-18c-1 0-3-8-3-18l1-9h1l2 1v-2c-2 0-1-1 2-2 3-2 3-2 3-4l-2-2-3-3c-2-4-2-5 0-2 2 2 3 2 2 0v-1l2 1-4-4c-1-1-4-7-3-9 1-1 0-5-1-5v1h-1v-3l2-4 1-3 1-1c0-3 7-14 12-18 5-5 9-6 16-7l13-2c7-1 16-1 24 1h4l-2-6v2c-1 1-1 0-1-3l-1-4-1 1v3c0 2 0 2-1 1l-1-3c0-3 0-3-2-2-1 2-2 1-2-2s0-3-2-1v-2l-1-3-1 1v1l-1-1c1-1 0-2-1-1v-2l2-2 1-2 1-3-3 3c-3 3-4 3-4 2v-3l1-1 1-3 1-2-3 2-2 2c-1-1 0-3 1-4l1-2h-2-1v-1c-1-1-1-1 2-4l2-3 1-2c0-1-2-1-3 1l-2 1h-1l2-4c2-4 2-6 1-6l-1 2-4 5v-1l3-4v-4c-1-1-1-3 1-3l1-2v-4c-1-1-2-1-1 1 0 1 0 2-1 1l-1 1-1 2c-1 1-1 1-1-2l1-4 1-2c-1-2 0-2 1-1 2 2 2 1 0-2v-3c1 0 2-1 1-2l-1-2 3 1c1 2 2 2 2 0l-2-2-1-2h1l1 1-1-4-1-4h1l2 3c0 3 1 5 2 5h1l-5-12c-2-1-2-3 0-3v-2l-1-3v-2l1 2 5 11c1 0 1-1-2-6l-1-4c1-1 0-3-1-5v-4-3c1 1 1 1 1-1l-1-2 2 2 2 3-1-6-1-3v1h1l1 1v1l1 2 1 3v-3l-1-5-2-4v-1c0-2 3 2 4 5s3 6 4 5l-1-2-1-3-1-3-2-8 2 2h1l2 3 3 3-1-3-1-3-1-2c-3 0-4-3-3-4v-1l-1-3 2 1 2 1v1l3 3-2-4-1-1-1-3-1-1 2 2h1c1-1 3 3 3 4l1 1 1-1-6-9-2-5c0-2 3 2 5 4l1 2-3-9v-1l1-2 1-1v-3c-2-3-1-3 2 0 3 2 3 2 1-1-1-3-1-3 1-3s3-2 2-3h-2l-1 1v-1l-1-3c-3-2-2-4 0-2s3 2 2 0c-2-2 0-2 2 0 3 2 4 1 1-2-1-3-1-3 1-2 3 1 4 3 5 4 0 2 2 2 1 1l-1-8h1l1 2 1 5v-3c-1-2 0-3 1-1s2 1 1-4l1-5 3 3c1 2 1 2 1 0l-1-4c-1-5-1-5 1-3l1 3c0 2 2 1 2-1 0-4 1-5 2-2l1 2v2c0 2 1 2 1-1v-5l1 1v-1c1-2 1-2 2-1v5l1-7-2-1V7l3 3 2 4 1-4V6v2c0 3 1 3 2 1l5-5 1 2c1 3 1 3 2 0 0-2 0-2 1-1h2c0-1 1-1 1 1v1l1-1 1-1c0 2 1 3 1 1 1-3 2-1 2 1 0 3 1 4 2 2 0-4 1-5 2-4l1-1c0-2 1-2 1 1l1 2V4c1-3 2-2 3 2 1 5 2 6 2 1V3l1-1 1-1v6h1l1-1 1-1c1-2 1-3 3-3l2-1v4c0 5 1 6 2 1 1-6 1-7 2-5h1c0-1 1-1 1 1 1 2 1 2 2 0l1-2c1 1 2 2 2 5 1 5 1 6 1 2 0-3 1-5 2-3l1 3v3c0 1 1 1 1-2 1-3 3-4 2-1 0 2 1 4 1 1l2-1 1 1v3c0 2 0 2 1 1 1-2 2-2 1 0l1 2v1c-1 3 0 4 2 1 1-3 3-3 3 0 0 2 1 3 2 1s1-1 1 1v2l1-2h3l-1 2c-2 0-2 2 0 3l1 3 1 2 1-4c1-4 3-5 2-1v5c1 0 2 0 2-2l1-3v6 3h2l2-2 1-2-1 2-1 5-1 4 1 1 1-2 1-1c0 2 1 1 2-2l1-3v5l2 4 1-3v-2l1 1-2 7v6l-3 10-3 7-2 3-1 6-1 7-1 6 1 4-1-1v-2l-1 4c0 5 1 6 2 6v1l2 7c3 9 5 22 3 28v2l-1-2v-11l-1-9c-1-1-1-1-1 3a99 99 0 01-1 24l-1 4-1 2-1-2-1-3c-1-1-1-1-1 1-1 2-3 3-3 0 0-1-1-2-3-1s-2 2 0 5v5l-3 1-1 3c2 3 1 3-1 1-2-1-2-2-2-3h-2v5l-1 1-5 3 1-2c4-4 4-4 2-5l-1-2c0-4-2-5-5-2l-1 1h2l3 2-4-1-4-2-3 2-4 2c-3 0 2-4 6-5l3-2-1-1h-2c0 2-1 1-2 0-1-2-1-2-1 0s-1 3-1 1h-1l-1-1c0-2-1-2-1-1 0 3-2 6-3 7l-2 2-1 7c-1 1-1 2-3 2-3 0-5 5-3 8h2c2-3 3-1 1 2l-2 4c1 1 1 0 1-1l2-2c2 0 2 0 0 3l-2 3c-1 2 1 1 2-1l3-2c1 0 1 0 0 0-2 1-2 3 0 2h1l-1 1-1 2-1 2h1l2-1v3h1c-2 4-2 4 0 2 1-1 1-1 1 1l1 1 2-1h1v3l-1 1 2 1 2 1 3-1h5l1 1 1-1 2-2h-3-1-1c-2 1-2 0-2-1l1-1 2-5 2-5c0 2 0 2 1 0 2-1 2-2 1-2s-1-1 1-4l1-5 1-3 4-1c2 1 3 2 3 4l1 1 2 2 1 1 3-3-2-3-5-8 2 1 4 7c3 2 3 5 1 7l-1 1 1 4c2 4 2 9-1 12-2 3-1 5 1 6 3 1 9 6 10 9 2 3 3 7 3 13 0 3-1 4-2 2-1-1-1-1-1 2v3l-1 1-1 1-3 1c-1 1-3 2-7 2l-5 2h-3l-2-1-1 1-1 1c-2 0-2 0-1-2v-2l-4 1c-3 1-3 2-2 2s1 0 0 0c-2 0-2 1-3 2 0 2 2 3 5 3l12 3a136 136 0 0014 6c6 2 6 2 20 3l13 1 3-1c2-1 4-2 8-1 6 0 6 0 7 2 2 3 3 7 3 13l2 9 2 7 2 4 1 8c0 12 1 18 5 25 5 13 6 15 6 21 1 5 3 12 6 15l3 4 3 1 1-1 5 1 8 4 6 3a1454 1454 0 0068-30 4757 4757 0 00119-53c3 0 4 1 6 6 2 4 4 4 11 1a1237 1237 0 0155-26 2814 2814 0 01100-44 4674 4674 0 01-136 72l-6 3a2296 2296 0 00-16 9l-3-4-4-3-5 3-6 3-6 2a262 262 0 00-45 26l-6 5-2 2-17 8-28 15a286 286 0 01-34 16l4-3-3 1-13 5a1874 1874 0 00-8 3c-5 1-9 3-9 4h-3l3-2 3-1h-1l-4 1c-4 1-4 2-3 2v2 4c1 2-1 7-3 8l-2 3c0 4-3 6-9 7l-4 2-5 4h-2 2l1 1h-1l-2 1 2 1h1l1 1h3l1 1h-3c-3 0-3 0-1 1l6 1 5-1c1-1 1-1-1-1-5 0-5-1 0-1 5-1 6-1 8-3l3-6a215 215 0 014-11c0-2 0-4 2-3 1 1 1 2-2 9-1 6-3 8-6 12-6 6-13 11-19 12l-6 2-10 2c-8 0-27-5-30-8h-2l-4 2-4 2-1 2 1 5 2 14 2 12-1 5v1l1 1-2 12-2 14-3 28c-1 12-1 16-7 31-4 13-4 13-4 22l-2 15c-2 6-3 15-4 29a466 466 0 01-9 72 172 172 0 00-9 51l1 8v6c1 4-1 11-5 19a166 166 0 00-13 49l-2 16c-4 14-5 36-3 45l2 13v24 8l2 24 1 10 3 2 1 1v-1l-3-4c-3-5-2-6 2-4l11 12c4 4 8 7 10 7h2l4 3 9 5 9 5c7 3 8 3 9 5l1 1c4 0 0 4-6 8-4 2-4 2-11 2-6 0-39-2-45-1-3 1 4 10 4 17 0 2 2 7 0 9zm-33-3c2 0 1-1-1-1l-2 1h3zm-7-7l-4 1v1h3l1-2zm-8 0l-2-1 1 1h1zm2-2c1-1 1-1-1-1s-2 1-1 2l2-1zm40-2l-2-1v1h2zm-43-2c2-3 2-3-2-2-2 1-2 1-1 2 1 2 1 2 3 0zm45-3h-2l-2 1-1 1 3 1h2v-3zm-41-2h0zm34-7c0-2 1-3 2-3l1-2c0-2-1-2-3-1h-3l1 1v2h-3l-2 1 3 1c3 0 2 1-1 1h-2l2 1c4 1 4 1 5-1zm-49-3l6-5c4-3 6-5 4-5l-11 8-2 4 3-2zm-5-1c1-1 0-1-1-1l-1 1h2zm13-2h-1l-1 1 2-1zm103 0l1-1c0-1-2-3-5-4l-4-1-5-2c-2 0-3 0-2 1 0 1-3 1-7-2h-2l1 2-5-4h-2l1 1 1 1c0 3 5 5 13 5 5 0 6 0 3 1-6 0-5 1 1 1 5 0 9 1 9 2h2zm-100-2l-2 1h1l1-1zm8 0l5-6-4 3a366 366 0 01-1 3zm-16-4l9-5c5-2 7-4 6-5s-20 11-20 13c0 1 1 1 5-3zm-3-2l1-1c1-2-2-2-3 0-3 4-3 5-1 3 1-2 3-2 3-2zm54 0l-2-1v1l1 1 1-1zm-33-1l1-1h-1l-1 2c-3 1-1 1 1-1zm25 1v-1l-1 1h1zm-18-1l-3-2c0 1 1 3 3 3v-1zm-22-4l2-3c-2 0-6 4-6 5 0 2 0 1 4-2zm-8 1l-1-1v2l1-1zm25-1l-1-1-1 1 1 1 1-1zm4-1l-2-1v1h2zm34-2v0zm-55-3c2-1 2-1 0-2l-3 2c-3 3-3 5 0 3l3-3zm-7 0l3-4c3-2 3-3 0-1l-5 7 2-2zm14 2c2-1 2-2 1-2l-2 1c-1 1 0 1 1 1zm7-1l-1-1v1h1zm28-1l-1-4-2-4-2-4c-3-3-1-4 2-1l2 1-6-8c-2-2-2-3 0-3l-2-4c-3-3-3-5-2-6l-1-1-2-5v-3-3c-3-2-1-3 2 0 3 2 3 1-1-3-3-3-5-4-5-2l-1 3c-2 2-2 3 0 2 2 0 2 1 0 2l-1 2h1c2 0 3 1 1 2s-1 2 0 2c2-1 3 0 2 1v2c1 1 2 1 1 2l2 2 5 14-1 3-2-1c-1-2-2-1-2 0 0 2 1 2 2 3l3 3 2 2 2 1c2 5 4 7 4 5zm19 0l-1-1-1 1 1 1 1-1zm-56-3l-1-1-1 1h2zm52-1v-2l-4-5 2 7c1 2 1 2 2 0zm-39-1h-1l1 1v-1zm43-2l-1-2c-1 0-1 1 1 3v-1zm-59 0c0-1-1-2-2-1s0 2 1 2l1-1zm-7-3h-1c-2 1-2 1 0 1l1-1zm4-4c-1-1-3 1-2 2h2v-2zm35-16l-1-1v1h1zm-34-2l-1-1v1h1zm6-1a1 1 0 00-1 0v1l1-1zm-13-3h-1-1l1 1 1-1zm5-1l-1-1-1 2 2-1zm5-2l-1-1-1 1 1 1 1-1zm-3-4l-1-1-1 1 1 1 1-1zm18-3v-1l-1 1h1zm5-4c1 0 0 0 0 0h-2l1 1 1-1zm2-3h-2 2zm-18-7c-1-1-1 0-1 2h1v-2zm-5 0h-1c-1 0 0 2 1 1v-1zm14 1v-1l-1 1 1 1v-1zm-19 0l-1-1h-1l1 1h1zm28-3c-1-2-2-1-1 1l2 1-1-2zm10 1v-3h-1l1 4v-1zm4-2l-1 1 1 1v-2zm-9-2l-1-3c-2-1-3-1-1 3 1 3 2 3 2 0zm-31 1v-1l-1 1 1 1v-1zm20 0v-1l-1 1 1 1v-1zm-29-2l-1 1 1 1v-2zm5 1l-1-2-1 1 1 2 1-1zm29-4l-2-2v2c1 3 2 3 2 0zm-10 0h-1l1 1v-1zm23-5v0zm-3 3l-1-3-1-3h-1v3l3 5v-2zm-40-2v0zm24 1c0-2-2-4-2-3v3c1 2 2 2 2 0zm-29-1c0-1 0-1 0 0s0 2 1 1l-1-1zm39-2l-2-5-1 3 3 5v-3zm-5-2c-1-5-3-7-3-2l1 4c2 1 2 1 2-2zm-10 1c0-1-2-3-3-2l2 3 1-1zm27-5v-3 3zm-47 2v-1l-1 1h1zm24-1c0-3-1-4-2-4v4l2 2v-2zm-28-2c-1-1-1 1-1 2l1 2v-2-2zm47-1l-1-5a929 929 0 011 5zm-4 1c-1-1-1 0-1 1h1v-1zm-21-3c-1-2-2-1-1 2l1 2 1-2-1-2zm14 1l-1-1v1l1 1v-1zm-19-3c0-2-1-2-1-1l1 3c1 2 2 1 0-2zm-13 2v-2l-1 1 1 1zm38-2c0-3 0-3-2-2h-1l3 4v-2zm-29 0c0-2-1-3-2-3l1 3h1zm-12-2c-1-3-1-3-1 0v2l1-2zm49-2c0-4-1-5-2-3l2 6v-3zm-23-1c-2-1-2 0-1 2h1v-2zm6 3l-1-2c-1 0-2 1-1 2h2zm-25-1v-2h-1v3h1v-1zm-12-3l-1-1v2l1 1v-2zm58 1h-1l1 1v-1zm-9-4l-1-2 1 6c0 1 1 1 1-1l-1-3zm-22 3l-1-2v3l1-1zm-6-1l-1-1v2c1 1 1 1 1-1zm-5-2v-2c-1-1-1 0-1 1l1 2v-1zm25-2v1c0 2 1 3 1 1l-1-2zm-3 1l-2-3c-1-1-1-1-1 1l2 4 1-2zm-34-2c0-2 0-2-1-1v4l1-3zm7 1v0zm21 0v-3c-1 0-2 2-1 3 0 2 1 2 1 0zm-10-1c0-1-1-2-2-1l2 2v-1zm32-1l-2-4v3c0 3 1 3 2 1zm-55-4l-1 2h1v-2zm8 0v3l1-1-1-2zm41-1c0-3-1-5-2-5l1 6c1 3 2 3 1-1zm-36 2l-1-2v2h1zm10-2l-1-3-1 2c1 4 2 4 2 1zm5 1c0-2-2-1-2 0l1 1 1-1zm-23-3c-1-1-1 0-1 1h1v-1zm30 0l-3-3 1 4c2 1 2 0 2-1zm-18-3c-1-1-2 1-1 2l1 2v-2-2zm37 0l-1-4-1 3c0 3 0 5 2 5v-4zm3-3v7-3-4zm-13 4c-1-3-1-3-2-1v2c1 1 2 1 2-1zm-31-2l-1-2c-1-2-1-2-1 0l1 4 1-2zm-9 0h-1l1 1v-1zm25 0l-2-3v3c0 2 2 2 2 0zm-29-3v0zm38 1c0-2-2-3-2-2v2c1 3 3 3 2 0zm10 0l-1-1v2c1 1 1 0 1-1zm-25-1l-3-3 1 3c1 2 2 2 2 0zm11 0l-2-2v2h2zm-37-2l-1 1h1v-1zm11 1l-1-1v2l1-1zm8-2l-1-1v2c1 2 2 1 1-1zm41-2l-1-1v4l1-1v-2zm-45 2l-1-1v1h1zm31-3l-1-3v5c1 1 1 0 1-2zm4 0l-1-3c-1 1 0 5 1 5v-2zm-14-1c0-2-1-4-2-3l-1 3c1 3 3 4 3 0zm5 0c0-1-1-3-2-2v2a1983 1983 0 012 0zm-11 0c0-2 0-3-2-3-1-1-1-1-1 1s2 4 3 4v-2zm25-2c-1-3-2-2-1 1 0 3 1 3 2 2l-1-3zm-31 2l-2-5v5h2zm-5-1c0-2-1-3-2-3l1 3h1zm42-2l-1-4-1 2 2 4v-2zm-47 0l-1-1-1 1 1 1 1-1zm36-4v-3h-2l2 5v-2zm-51-1v0zm42 0l-1-3c-1-1-1-1-1 1v4c1 2 2 1 2-2zm5-3l-2-1c-1 0-1 1 1 5 0 2 0 2 1-1v-3zm-32 3c-1-3-2-3-2-1l1 2 1-1zm4 0v-1l-1 1 1 1v-1zm11 0l-2-4v5c1 1 2 1 2-1zm27 0l-1-1v2l1-1zm-33-3l-1-2-1 4c1 2 2 1 2-2zm12 1c-1-2-2-2-2 0l1 2 1-2zm26-4v3h1l-1-3zm-43-1v0zm38 3l-2-3 1 3h1zm-5-4c0-2-1-3-3-3l1 6c2 1 2 0 2-3zm-49-3v0zm32 0c0-4 0-5-2-5v4c1 6 3 8 2 1zm-19 1l-1-1v3c1 1 2-2 1-2zm13-1l-1-5c-1 1 0 9 1 9v-4zm12 2l-2-5v6c1 2 2 1 2-1zm6 0l-3-5v5c1 2 3 2 3 0zm11-1h-1l1 1v-1zm6-1l-1-2c-1-1-2 1-1 2 0 2 2 1 2 0zm-40-1l-1-3v5l1-2zm-12-2v1s0 1 0 0v-1zm8-4c-1-1-1 0-1 3l1 2v-2-3zm39 3c0-2-1-3-2-3l-4-2h-3l8 6 1-1zm-10-4l-5-4c-2 1 1 6 4 7 4 1 4 0 1-3zm-10 0l-1-1-1 1 2 1v-1zm24-2c0-2 0-3-2-3l-1 2 2 4 1-3zm-30 1l-4-2c-3-3-3-3-3 0l6 2h1zm7-3c0-2 0-2-2-3l-3-1c-1 1 1 5 3 5 2 1 2 1 2-1zm17-2c0-3-1-4-7-8-6-3-5-1 3 8l4 3v-3zm-5 0l-5-5-3-3v2c0 3 2 6 4 6l1 1 4 2-1-3zm-19 1c0-2-1-5-4-6l-2-2 3 1c2 1 3 1 2-1-1-6-2-8-4-9-3-2-4-2-4 2-1 8 0 19 1 14v-2l4 2 4 1zm-12-10v0zm41 6v-1l-1 1h1zm-21-2c0-3-1-6-4-8-3-1-4-1-4 1 0 4 1 6 4 7 1 2 3 2 3 2l1-2zm-30-3l-1-1-1 1 1 1 1-1zm6-1v-3 3zm41-1c0-3-1-5-4-6-2-1-2-1-2 1l5 7 1-2zm-5 1l-2-5c-4-6-5-6-6-2l1 4 7 3zm-39-5v0zm-7 1c0-1 0 0 0 0v0zm16-8v-8c-1 0-2 3-2 11 0 9 2 7 2-3zm16 4c-2-5-3-6-6-7l-3-2 1 4 2 5 2 1 3 2c2 2 3 1 1-3zm-35-1v0zm-4-2v0zm19 1l-1-7h-1a247 247 0 010 8c1 2 2 2 2-1zm23 0l-3-4 1 3c1 3 2 3 2 1zm15 0c0-2-2-3-2-1l1 3 1-2zm-27 0l-1-5c-1-4-1-5-3-5l-1 5v5h5zm-22-3v0zm45 2c1-1-1-5-3-6-3-1-3-1-3 1l2 4c2 2 3 2 4 1zm-42-1l-1-1v1l1 1v-1zm4-4l-1-3-1 3 1 4 1-4zm-11-1v0zm40 1c0-1-1-4-2-3l2 5v-2zm13-3l-1-2v5l1 2v-2-3zm-17 0c-1-3-3-4-3-2s2 5 3 5v-3zm-5-2c0-3-1-4-2-4v-1c2 0 2-1 1-4-1-11-4-31-6-34v-1l-2 2c-3 3-4 3-2 0l1-2 1-2 1-3-1-3-6 7 1 8c1 6 1 7 3 6l1 7 5 25 5 3v-4zm-4-7l1-1v2l-1-1zm-7-29v-1l1 1v1l-1-1zm29 36l-2-4v6c1 2 2 2 2 1v-3zm-43-4v-5l-1 5 1 5v-5zm9 1l-1-5v9l1-4zm29 3l-1-2h-1v2h2zm-22-7l-2-10c0-5-1-6-2-6v15c0 4 0 4 2 6h3l-1-5zm35-4a295 295 0 01-2-5v14c1 2 2-4 2-9zm-47 7c1-2 0-6-1-5v7l1-2zm29 0c-1-5-3-6-3-2 0 3 1 4 2 4l1-2zm14 1v-6c0-3 0-3-1-2v9c1 1 2 0 1-1zm-19-7v-3c2-1 2 0 2 1l1 1 1-1-3-15c-1-5-2-7-3-4h-1l1-3c1-2 2-3 1-4l-1-4v-2l-2 2c-2 3-2 3-2 7l2 10a185 185 0 013 20c1 2 2-3 1-5zm8 5h-2l1 1 1-1zm34-1l-1-1v2l1-1zm-16-5v0zm-17 1l-2-4c-2 0-2 2 0 4 1 2 2 2 2 0zm28 0v0zm-24-1l-1-1-1 3 2-2zm13-11a350 350 0 00-9-64l-2-1 1 12a2552 2552 0 0010 53zm-9 7l1-5v-4l1 3c0 4 1 5 2 2l-4-35a899 899 0 01-6-33l-1 4 1 13a586 586 0 016 55zm-4-2c0-2 0-3-2-3l-1 2c0 4 2 5 3 1zm-41-2c0-3-1-2-1 1l1 2v-3zm35-3l-1-18a89 89 0 01-2-18c0-2-4 4-4 6 0 3 1 4 2 2 1-1 2-1 0 1-1 2-2 7-1 9v4l4 17 1 1 1-4zm6-6l-2-26-2-15c0-13-2-18-4-17v6l1 16a302 302 0 006 42l1-6zm16-16l-5-41-2-1c-1 0-1 5 1 16a296 296 0 016 46v-20zm-61 15c-1-1-1 0-1 1 1 2 1 2 1 0v-1zm4-2l-1-1c0-1 0 0 0 0 0 1 0 2 1 1zm65-4h-1c0 2 0 2 1 1v-1zm12-3s0-1 0 0l-1 1h1v-1zm-51-11v-4l-3 3c-3 3-4 4-2 6v2l2-2c3-1 3-2 3-5zm33-24l-2-12c-2-2-2 0-1 11a204 204 0 012 23l1 6v-9-19zm-73 22v0zm27-1l2-4v-4c-1-1-1-1-3 1l-2 6v4l3-3zm9 0c3-3 5-7 3-8l-3 2c-3 3-3 3-3 8 0 1 1 1 3-2zm-33-3v4-2-2zm7-1v-2l-1 2 1 1v-1zm5 1l-1-2-1 1 1 1h1zm-15-5c-1-1-1-1-1 1l1 1v-2zm36-1c2-2 2-3 2-7l-1-4-3 4c-3 4-4 4-3 7l1 3 4-3zm10-1c1-1 0-16-1-16l-3 2-2 6 1 3 2-1c2-2 3 0 0 2-1 2-2 4-1 8l4-4zm-43 1l-1-2-1 2 1 2 1-2zm23-1c2-3 3-7 1-7-1-1-4 3-4 6 0 4 1 4 3 1zm-16-1l-1-3v5l1-2zm-4 0l-1-1v1h1zm12-1l-1-1v2c1 1 1 0 1-1zm-19-3v0zm3-4l-1 2c0 2 1 3 2 1l-1-3zm11 2c0-1 0-1 0 0l-1 1c1 1 1 1 1-1zm4 0c-1-2-1-1-1 0 0 2 0 2 1 1v-1zm17-2c2-2 3-3 3-5v-3l-4 3-3 4c-1 1 0 4 1 4l3-3zm-9 0c2-2 2-3 1-3l-3 4c0 2 1 1 2-1zm-18 0l-1-3-1 2 1 2 1-1zm3-1l-1-3 1 3zm3-2l-1-4c-1 1 0 5 1 5v-1zm78-2c0-1 0-1 0 0v0zm-74-2l-1-2-1 2 1 3 1-3zm16 0l2-4v-2l-7 6c0 3 2 3 5 0zm54-1c0-4 0-4-1 0l1 3v-3zm-84-1l-1-3v4c0 4 0 3 1-1zm39 2c3-1 4-5 3-6l-3 2c-5 3-4 7 0 4zm-37-2v0zm3-3c-1-1-1 0-1 2l1 2v-2-2zm12 1v0zm-8 0c1-1 0-3-1-3v2c0 2 1 3 1 1zm20-2l1-3-5 4c0 2 2 1 4-1zm9 0c3-1 3-1 2-2-3-2-7 1-6 3 1 1 1 1 4-1zm-24 0v-2l-1-2-1 3 1 2 1-1zm3-5v4l1-2-1-2zm9 3c2-1 2-2 1-2l-3 2h2zm-21-3l-1-1v3l1-2zm77 1v-1l-1 1 1 1v-1zm-74-2v0zm79-1l-1-1v2l1-1zm-75-1v-2c-1 0-2 2-1 3 0 2 1 1 1-1zm57 0l-1-3v1c0 4 1 5 1 2zm-5-3l-1-3v3c1 4 1 4 1 0zm-12 2l-1-1 1 2v-1zm-5-2c-1-2-2-2-2-1l3 3-1-2zm12-1l-1-3-1-2v2l1 2v1l1 2h1l-1-2zm31 1v0zm-86-1l-1-2v4c1 1 1 0 1-2zm-4 0h-1l1 1v-1zm8-1v-2c-1-1-1 0-1 1l1 3v-2zm30 0l-1-1v1h1zm3-1v0zm13 0v0zm-42-2l-1-1-1 2 1 1 1-2zm37-1l-2-2 2 5v-3zm-26 1l-1-2c-1-1-1 0-1 1 1 2 2 3 2 1zm4-2c0-2-1-2-1 0v2c1 2 2 1 1-2zm57 2h-1l-1 1h1l1-1zm-52-1l-1-1v1l1 1v-1zm13 0l-1-2-1-3c-1-1-1-1-1 2 1 3 2 5 3 4v-1zm21-1l-1-3c-1-1-1 0-1 1l2 4v-2zm-62 0l-1-3v4c0 2 1 2 1-1zm36-1l-2-2c-1 1 1 4 2 4v-2zm56 2l-1-1h-1l1 1h1zm-88-2l-2-4v5h1l1-1zm52-1l-2-3v3l3 2-1-2zm32-2l-1-3v7l1-4zm-37 3c1-1-1-5-2-7l-1 1 3 6zm-22-4c-1-1-2 0-1 2s1 2 1 0v-2zm18 0l-2-3c-1-1-1-1-1 1 1 4 2 6 3 5v-3zm36-1l-1 1c0 3 1 4 2 1l-1-2zm-67 1c0-1 0-1 0 0l1 2-1-2zm9-1c-2-1-2-1-1 1l1 1v-2zm17-2c-2-3-3-4-3-2l3 7v-5zm21 2l-1-2h-1l1 3c2 3 2 2 1-1zm-41 2l-1-2-1 1 1 1h1zm54-5c-1-1-1-1-1 1s0 3 1 2v-3zm19 3v0zm-38-2l-1-3-1-1 2 5c1 2 2 2 0-1zm-20-1l-3-3 1 3c1 3 3 3 2 0zm55 0v-1l-1 1 1 1v-1zm-12-2v-2l-1 4c1 1 1 1 1-2zm-61-2c-1-1-1-1-1 1l1 2v-3zm33 1c-1-2-2-4-2-2l2 4v-2zm-5 0l-2-6-1 1 1 3c1 3 2 4 2 2zm-33-2c0-1 0-1 0 0 0 2 1 3 1 1l-1-1zm30 1l-1-1v-2l-3-3v3l2 3c0 2 2 2 2 0zm16-2l-1-3-1-1c-1 0-1 3 1 5 1 2 2 2 1-1zm13-1c-1-1-2 0-1 2v1l1-3zm-34 3l-1-3c-1-4-4-5-3-2l3 5h1zm-5-4l-2-2c-1-1-1-1-1 1 0 3 2 4 3 3v-2zm-5 0c-1-2-2-3-2-1l1 2 1 1v-2zm-29-2l-1-3v3c1 3 2 3 1 0zm24 1v1h1l-1-1zm30 2l-4-8v3l1 3 1 1 2 1zm30-2v-3c-1-1-2 2-1 4 0 2 1 1 1-1zm9-2h-2l1 2h1v-2zm-5 1v-2l-1 2 1 2v-2zm-39 0l-2-3c-1-3-2-3-1 0l3 4v-1zm27-1v-1l-1 1h1zm-65-3l-1-3v4c1 2 2 1 1-1zm6 0c-1-1-2-1-1 1l1 1v-2zm26 0c-1-3-3-5-3-2l3 4v-2zm16-2l-2-4v2l2 4v-2zm-21 2l-2-4-1 1c2 5 3 6 3 3zm17-2l-2-2c0 1 2 6 3 5l-1-3zm-20 2c0-2-3-6-4-6l1 5c2 2 3 3 3 1zm61-1v1c0 1 0 1 0 0v-1zm-70 0c0-1-2-3-3-2l2 3 1-1zm4 1l-1-3c-1-2-3-4-3-2s2 5 3 5h1zm-24-2h-1a1 1 0 000 1l1-1zm86-2c0-1 0-1 0 0v0zm-72 1h-1l1 1v-1zm-5-1l-1 1h1v-1zm58 1l-1-1v1l1 1v-1zm12-1l-1 1h1v-1zm-36 0l-4-6 1 5c1 2 3 2 3 1zm-5-1l-3-7v5l3 2zm44-2l-1-1v3l1-2zm-49-2l-2-4v5c2 3 3 2 2-1zm37 1v-3l-1 2v3l1-2zm5 0h-1v2c1 1 1 0 1-2zm-69-1l-2-2 2 3v-1zm6 1l-2-2c-1-2-2-1 0 1l2 1zm3-2l-2-2 2 4v-2zm5 1c0-2-2-5-3-5l1 4c1 3 2 3 2 1zm4-2c-1-3-2-3-2 0l2 3v-3zm5 3l-2-4 1 4h1zm25-1l-1-1v1h1zm10 0v-1l-1 1 1 1v-1zm-15-2l-1-3-1 3 2 2v-2zm38 0h-1l1 1v-1zm-42 0l-1-3-3-3c-1 1 0 4 2 5 1 2 3 2 2 1zm22-2l-1-2v3l1-1zm24-1v-1l-1 1 1 2v-2zm-8-4l-1-1v5c0 1 1 1 1-1v-3zm-44 4l-3-6c-1 0-1 3 1 6h2zm14-1l-1-1c-1-1-3 0-2 1h3zm25 0l-1-2h-1v2h2zm-81-2v1h1l-1-1zm24 1l-1-3-3-4 4 7zm5-1l-3-5c-1 0 0 4 2 6l1-1zm7-1l-1-1v2c1 2 2 1 1-1zm40 1c1-2 0-6-1-6-1-1-1 0-1 3v4c1 1 2 0 2-1zm15-1l-1-1c-1 1 0 3 1 3v-2zm-78-1l-2-3 1 3 1 2 1 1-1-3zm6 2l-4-7 1 4c2 4 3 5 3 3zm31-1l-2-2v3l2-1zm33-4l-1-4-1 4c0 6 1 6 2 0zm-52 1v1c0 1 0 2 1 1l-1-2zm12-2c-1-1-2 0 0 3l1 1v-1l-1-3zm-47 1c-1-1-1-1-1 1l2 1-1-2zm7 1l-1-1c-1 1 0 2 1 2v-1zm48-3c0-1 0-2-1-1l1 3v-2zm36 2v-1l-1 1a1 1 0 001 0zm-48-2l-2-2c-1 1 1 4 1 3l1-1zm33-1l-1-4c-1-1-1-1-1 1l1 4c1 2 1 2 1-1zm-37-1c-1-2-3-4-3-2l2 4 1-2zm12 0l-3-4v4c2 3 3 3 3 0zm32 0l-1-2v3c0 2 1 1 1-1zm-97 0v0zm47-3c-2-3-3-4-3-2l2 5c2 2 2 0 1-3zm26 2l-3-7v3l1 3 3 3-1-2zm-84-1l-1-11-1-7v19l1 1 1-2zm69-2c-1-2-2-4-2-2l3 6c1 1 1-1-1-4zm-16 4l-2-5-2-2c-1 1 0 3 2 6l2 1zm62-3v0zm-94 2l-1-1v1h1zm26-1c0-1-2-4-3-3l1 2c1 2 2 2 2 1zm74-3c0-1-1-2-2-1v3c1 2 2 1 2-2zm-119-3l-1-6v12l1-6zm63 4l-2-3v3h2zm22-1h-1l1 1v-1zm-9 1l-3-6 1 4 2 2zm34-6v-1c-1 0-2 3-1 5 1 1 1 1 1-1v-3zm-6 2c-1-2-2-2-2 0l1 1 1-1zm-35-2c0-2-1-3-1-1v2c2 2 2 2 1-1zm46 2l-2-1 1 2 1-1zm-113-17zm84 14l-1-1v2c1 2 2 2 1-1zm-31-1c-1-3-2-4-2-2l2 4v-2zm27 0l-2-2 1 3c1 2 1 2 1-1zm17 0c-1-1-2 0-1 2h1v-2zm7 1v-1l-1 1h1zm-121-1v-2l-1 2 1 1v-1zm30-1h-1l1 2v-2zm34 0l-1-1 1 2v-1zm16 1l-2-2c-1 1 1 3 2 3v-1zm13-1l-2-3v4c1 2 2 2 2-1zm42 1l-1-2c-1-2-1-2-1 0v3c1 1 2 0 2-1zm-110-1c1-1-1-1-1 1 0 0 0 1 0 0l1-1zm11-1l-2-1c0 1 1 4 2 3v-2zm5 1l-1-1v1c1 2 2 2 1 0zm98-1v0zm-51 0l-2-5c-1 0-2 2-1 4 1 1 3 3 3 1zm42-1zm-56 0l-2-3v3h2zm-60-14l-1-12v23c1 6 1 1 1-11zm-15 7l-1-4-1 3 1 5v1l1-5zm82 4c0-2-1-3-2-3v4c2 2 3 1 2-1zm31 0v1c0 1 0 1 0 0v-1zm10-1l-1-7-1 1-1 4 1 5 2-3zm14 2l-1-2-1 1c1 2 2 3 2 1zm-105-1h-1l1 1v-1zm69 0l-2-3c-1 1 1 4 1 4l1-1zm-63-1l-1-1 1 2h1l-1-1zm39-2l-1-2v3c1 3 2 3 1-1zm18 1l-1-3v4c2 2 2 2 1-1zm23-1c0-3 0-3-1-2s-2 4-1 5 2 0 2-3zm-58 3l-1-1h-1l1 1h1zm8-2l-1-1v3l1-2zm39 1c0-1 0-1 0 0v0zm-56 0l-1-1v1h1zm-41-3c-1-3-1-3-1 0v3l1-3zm80-1l-2-2v4c1 1 1 2 2 1v-3zm36-2l-1 2c0 4 1 5 1 1v-3zm-81 3v1h1l-1-1zm58 0l-1-1v1h1zm-31 0l-1-1v1h1zm-33-2v1h1l-1-1zm23 0h-2l2 1v-1zm23 1l-3-4v3l3 1zm27-4v0zm-82 1v1c0 1 0 1 0 0v-1zm67-1h-1l1 2 1 1-1-3zm39 1l-1-2-1-2v5c1 2 2 1 2-1zm-84 1l-1-1-1 1h2zm27-1l-2-3v3c2 2 2 2 2 0zm-53 0l-1-1c-1-1-1-1-1 1h2zm-24-9l1-16a2095 2095 0 01-2-48l-1-5-1-3v8l1 19c0 6 0 8-1 7a210 210 0 01-1-41l-1-3v4 13a3039 3039 0 013 41 535 535 0 000 16l1 14v3-4l1-5zm91 8l-3-3 2 4 1-1zm47-1l-1-1v2c1 2 2 0 1-1zm-105-1c-1-1-2 0 0 1l1 1-1-2zm28 1c0-1-1-2-2-1l1 2 1-1zm10-1l-2-1 3 3-1-2zm45-1v-7l-2 4-1 5c0 3 1 2 3-2zm-110 1c0-1 0 0 0 0v0zm96 1v0zm27-1l-1-3v5l1-2zm-132-1v0zm54 1l-1-1v1l1 1v-1zm16-1h-1l1 2v-2zm16-2c-1-2-2 0 0 2 1 1 1 2 2 1l-2-3zm14 0l-1-1c0 1 1 4 2 3l-1-2zm14 1c0-1 0 0 0 0v0zm11 0c1-2 0-4-1-4l-1 3 1 3 1-2zm-94 0h-1l1 1v-1zm51 0l-2-3v2c1 2 2 3 2 1zm21-2l-1-2 1 3 1 2-1-3zm-77 2v-1c-1-2-2-1-2 0 0 2 1 2 2 1zm19 0l-1-1h-1c1 2 2 2 2 1zm50-4l-2-3c-2 0-2-1 0 2l3 4-1-3zm-55 3l-1-1v1h1zm27-1l-1-1-1 1h2zm10 0c0-1-2-3-3-2s1 2 2 2h1zm13-2l-3-5v3l2 3 1-1zm25-2l-1 1 1 1v-2zm-31 0c0-2-3-5-3-4l3 6v-2zm-212 0c2-2 1-2-1 0l-1 1 2-1zm-5-1c0-1-2-1-2 1h1l1-1zm211-1c-3-5-5-6-3-1 1 3 2 3 4 3l-1-2zm58 0l-1-3v4c1 2 1 2 1-1zm4 0c0-2-1-2-1 1l1 1v-2zm-115 1h-1a1 1 0 000 1l1-1zm107-2zm-73 1l-3-5c-1 0-1 2 1 4 1 2 2 3 2 1zm47-1l-2-2 1 3c2 2 2 1 1-1zm-33 1c0-2-2-5-3-5s-1 2 1 4c1 2 2 2 2 1zm-20-2c-1-2-3-3-3-2l3 4v-2zm47-1c-1-4-2-5-3-5-1 1 3 8 4 8l-1-3zm26-5h-1v6l1 2 1-3-1-5zm-254 5c2-1 3-3 2-3-1-1-5 2-5 4s1 1 3-1zm177 1l-3-3 1 3c1 1 2 2 2 0zm18 0l-1-2v2c1 2 2 2 1 0zm28-4c-2-3-4-6-4-4l4 7c2 3 2 1 0-3zm20-2v8-4-4zm5 3c-1-5-2-5-2-1v5c1 1 2-1 2-4zm-91 3l-1-1v1h1zm32-2l-1-1 1 1c1 2 1 2 0 0zm-196 0l-1-1-1 1 1 1 1-1zm159 0v-1l-1 1 1 1v-1zm67-1l-4-7c-1 0-1 1 1 4l3 5v-2zm-207-5l-3 2-3 3 3-2 3-3zm136 1v0zm-149 1v-3c-1 0-5 4-4 5l4-2zm215 2l-6-9c-1 0-1 1 1 5l4 5 1-1zm20-1c-1-4-4-8-5-8l1 3 3 5c1 2 2 2 1 0zm34 0c-1-1-2 0-1 1h1v-1zm-61-1l-3-7-2-1c-1 1 0 2 1 5l2 4h1l1-1zm43 0c0-1 0-1 0 0v0zm-49 0c1-1 0-2-1-2v2h1zm63-1l-1-2v3c1 1 1 1 1-1zm-112-2c-1-1-1 0-1 2h1v-2zm21 2h-1l1 1v-1zm24 0l-1-2-1 1 1 1h1zm32 0v-1l-1 1h1zm31-2l-2-6 1 8c1 2 1 1 1-2zm-252 0l2-4-6 6c1 1 1 0 4-2zm183 1l-1-1v2c1 1 2 0 1-1zm81 0l-1-1v2l1-1zm-95-1l-2-1v1l2 2v-2zm4 1v-1l-1 1 1 1v-1zm6 0v-1a1 1 0 000 2v-1zm-191-2h-1l-1 1h1l1-1zm230-2l-1-4-3-3 2 5 3 5-1-3zm29 2v-1h-1l-1 1c1 2 2 2 2 0zm13-1l-1-1v3l1-2zm-263-2c3-3 4-4 2-4-1 0-6 5-5 6s1 1 3-2zm12 1l2-2c-1-1-5 3-5 4l3-2zm131-9l-1-13c0-2-2-5-3-4l1 4 1 11 2 13v-11zm73 6l-2-3c0-2-2-3-2-2l5 9h1l-2-4zm29 1l-1-4c-1-1-1 0-1 2-1 3 0 5 1 5l1-3zm-254 0c3-2 3-3 1-2l-4 3c-2 3 0 2 3-1zm2 2v-1l-1 1v1l1-1zm200-1l-2-4c-2 0-2 0 0 3 1 3 2 3 2 1zm-4 0l-1-3-2-2v2l2 4 1-1zm24 1l-2-5c-3-5-5-6-5-5l4 9 3 1zm-30-2c0-1 0-2-1-1l2 2-1-1zm-172-2l3-4c0-1-1-1-4 2l-3 4 4-2zm136 2l-1-1c-1 0-2 0-1 1h2zm33 0l-1-2c-1-1-2 0-1 2h2zm70-3h-2l1 2c1 2 2 1 1-2zm-81 2l-1-2-1 2h2zm-170-2l3-3-6 4c0 2 0 2 3-1zm174 2l-1-1c0-1 0 0 0 0v1h1zm33-2l-4-7c-2 0-2 0 1 5 2 5 4 6 3 2zm-215-1c2-3 1-3-2 0l-2 2 4-2zm210 1c0-2-3-8-5-9-1 0-1 1 1 5 3 5 4 6 4 4zm25-1h-1l1 1v-1zm15 1c0-2-2-1-2 0l1 1 1-1zm22-1h-1l1 2v-2zm4 1h-1l1 1v-1zm-241-4zm233 0l-1-5c-1-1-1-1-1 2l1 7 1-4zm-249 0l2-3-6 5c0 1 1 1 4-2zm-11-1l2-2-6 5c0 1 2 0 4-3zm194-1l-3-4v2l1 4s3 3 4 2l-2-4zm-4 2l-2-4-1-1v1l3 6v-2zm31-2c-1-3-3-5-3-3l4 7-1-4zm-44 2c0-1 0-1 0 0v0zm4-2h-1l1 1v-1zm4 0l-2-1 1 2c1 1 1 1 1-1zm66 1l-2-4-1 4h3zm4-3c-1-5-2-6-2-2l2 6v-4zm-10 2l-1-1 1 2v-1zm19 0v-1l-1 1 1 1v-1zm-266-1c3-3 3-3 0-1l-2 2 2-1zm12-1l1-2-4 4c0 1 2 0 3-2zm12-1l7-6 11-11-5 4a8658 8658 0 01-13 13zm193-1c-2-3-3-4-4-3l2 3 1 1 2 3-1-4zm-51 3l-1-1v1h1zm47-2l-2-3-1-2 1 2 2 5v-2zm17 2l-8-12 3 6 5 6zm-21-3l-6-9c-2 0-1 2 3 8 2 3 3 4 3 1zm-61 0a1 1 0 00-1 0 1 1 0 001 0zm-136-3h-2l-1 2h1l2-2zm11-2c5-3 7-6 5-6l-11 10c0 1 1 1 6-4zm150 3h-1l1 1v-1zm74 0l-1-2-1 2 1 1 1-1zm4-3c-2-1-2 0-1 2s2 2 2 1l-1-3zm15 3l-1-2v2h1zm-65-1l-4-7v2c2 5 3 7 4 5zm-106-1l1-3-1 1h-3c0 2 1 3 2 3l1-1zm99-5c-2-4-4-5-3-2 1 2 2 5 4 6l-1-4zm68 3l-1-4-2-1 2 8 1-3zm-267 0l-1-1v2l1-1zm45-2l2-3c-1-1-6 4-6 5l4-2zm151 2l-1-1h-1c0 2 2 2 2 1zm-144-2h-1l-1 1 2-1zm168-2l-3-5-1 1 5 8-1-4zm4 0c-1-2-2-3-3-2l4 6-1-4zm37 1l-1-2c-1-1-1-1-1 2l1 3 1-3zm-77-2c-2-4-3-5-3-3l4 7-1-4zm6 3v-1l-1 1 1 1v-1zm26-3l-3-4-1-1 2 4c1 2 2 4 3 3l-1-2zm-116 1v-14c-1-13-1-20 1-20l1 2c0 2 1 1 1-1 0-1 0-2 2-1 1 0 2 0 2 2s0 2 1-1v-2l1 2 1 2v-2c1-3 1-3 2-1l1 3v-3c0-4 1-4 2-1v4l1-4c0-4 1-5 1 0l1 3v-4c0-2 0-3 1-2l1 4v4c1 1 1-1 1-6l-1-7-7 2a174 174 0 01-11 4h-1c0-2-2-2-4 1s-2 4-1 4l1-1 1-1 1 2-1 3-1-1-1 7c0 15 1 22 2 23 1 2 2 2 2 0zm155-2c-1-1-1-1-1 1v1l1-2zm-80 0l-1-1v1c1 1 1 2 1 0zm36 0l-4-6c-1 0-1 1 1 4s3 4 3 2zm40 1l-1-1c0-1 0 0 0 0 0 1 0 2 1 1zm-199-1l-1-1v1 1l1-1zm126-1l-1-1 1 2v-1zm8-2l-1-1c0 1 1 4 2 3l-1-2zm-165-1c2-1 3-3 2-3l-3 4h-1l-1 1 3-2zm22-1c5-4 5-5 4-5-1-1-9 7-9 8s1 1 5-3zm229 0l-2-4 2 7v-3zm-68 2l-3-7c-2 0-2 1 0 5 2 3 3 4 3 2zm20-3l-3-5c-2-1-1 1 0 3l3 4 1 2-1-4zm-223 3v-1l-1 1h1zm261-6l-1-6-1-4v2l1 7c1 6 1 8 2 5l-1-4zm-207 3l2-3c-1-1-5 4-5 5l3-2zm88-2l-1-2 1 3 2 3-2-4zm56 3l-4-6 1 4c2 3 3 4 3 2zm55-2v0zm5 0l-1 1 1 1v-2zm-238-2l3-3-3 3-4 2v1l4-3zm207 2l-1-1v1c1 2 1 2 1 0zm-69 0a1 1 0 00-2 0l1 1 1-1zm-105-3l3-4-7 7 4-3zm138 0l-2-3v4l2 2v-3zm74 0l-2-5v3l2 5v-3zm-90 1c-1-1-1-1-1 1h1v-1zm34-1l-3-4-1-5-1-1c-2-1 0 6 4 11 1 1 1 1 1-1zm48 0c0-1 0 0 0 0v0zm-223-5c2-2 0-2-2 0l-2 2-1 1h2l3-3zm30 3v-1l-1 1 1 1v-1zm192-1v0zm-205 0l2-2 2-2-6 4 1 1 1-1zm150-1c-1-3-2-5-3-4l2 4c2 3 3 2 1 0zm15 1l-1-2c-2-1-2 0-1 2h2zm58-2c0-4-1-7-2-7l2 10v-3zm-254 1h-2c-1 1-1 1 1 1l1-1zm178 1c0-2-2-4-3-3l1 2 2 1zm-134-3h-2v1l2-1zm145-1l-1-1v2c2 2 2 2 1-1zm16-1c-2-4-3-5-3-3l5 7-2-4zm44-2c-2-5-2-7-3-6s1 7 2 10 2 1 1-4zm-50-1c-3-5-3-6-2-2l4 7c1 0 0-3-2-5zm62 4c0-1 0-1 0 0v0zm-249-1h-2l1 1 1-1zm223-3v-1 5c1 1 1 1 1-1l-1-3zm-64 1c-1-1-1 0-1 1h1v-1zm53-2v3h1l-1-3zm-181 3l-1-1-1 1h2zm153 0l-2-3v2l2 1zm-47-1v-1l-1 1h1zm-7-2c-1-1-2 0-1 1h1v-1zm12 2l-1-1c-1-1-1-1 0 0l1 1zm-138-2h-1v1l1-1zm115-1v0zm59 0l-3-2 1 2c2 3 3 3 2 0zm73 1h-1v1c1 1 1 1 1-1zm-20-1l-1-4c0-3-1-4-2-3l2 8 1 1v-2zm15 0l-3-11-1-1c-1 1 0 3 1 6a320 320 0 013 6zm-245-1l1-1-2 1-1 1 2-1zm215 0h-1c0 1 1 2 2 1l-1-1zm-202 0l1-1-2 1-1 1 2-1zm74-2l-1 1 1 1v-2zm47 1h-1l1 1v-1zm-50-1v0zm29-2c0-1 0-1 0 0v3h1l-1-3zm81 1l-1-1 3 3-2-2zm46 0l-5-11 1 7 4 6v-2zm-207 0c1-1 1-1 0 0l-2 1c0 1 1 1 2-1zm93 0h-1v1c1 1 2 1 1-1zm73 1l-1-4c-2-3-3-5-3-3l4 7zm-186-2zm236 1l-1-1c0-2-1-1-1 0l1 1h1zm-70-2l-1 1 1 1v-2zm46 1l-1-3-1-3v2l1 5 1-1zm-108-4c0-3-1-4-1-2-1 2 0 7 1 6v-4zm14 4l-1-1v1h1s1 0 0 0zm123-1l-2-1 1 2 1-1zm-214-3l-3 2h2l1-2zm163 0l-1-2 1 4v-2zm-78 2l-1-2h-1l1 2h1zm84-3c-1-4-2-4-1-1l2 4-1-3zm-115-1v-4c0-2 0-2-1 0v8l1-4zm138-2c-3-6-4-7-3-1 1 3 3 8 4 6l-1-5zm-98 4l-1-2-1 1 1 1h1zm121-2v1l1 1-1-2zm-240 0c-1-1-3 0-3 1h2l1-1zm236 0l-3-10-2-2h-1l5 14 1-2zm-131-2l-2-4 1 6c1 2 1 1 1-2zm8 2l-1-2 2 3-1-1zm91-1c0-1-2-2-2 0l1 2 1-2zm25-6l-4-8c-1-1-1-1 0 0a893 893 0 014 8zm-224 7l-1-1v1c-1 0-1 0 0 0h1zm25-2h-1l-1 1 1 1 1-2zm67-1l-1-2v2c1 3 1 3 1 0zm-21 0v0zm135 0l-1-1 1 3v-2zm-103-2l-2-4 2 7v-3zm-8 0l-2-6v4c1 4 2 5 2 2zm29 0c-1-2-2-2-2-1l1 2 1-1zm110-1c0-2-2-4-2-3v3c1 2 2 3 2 0zm-228 1v-1l-2 1v1l2-1zm24-1h-1l-1 1h1l1-1zm190 0l-1-4-2-3v-2l-1-1c0-2-2-4-2-3l6 14v-1zm-164-1c2-2 2-3 1-3l-1 1c0 1 0 1 0 0l1-2c1-2 1-2-2-5l-2-5v-1l-3-3-4-5c-3-2-4-3-1-3h2c-1-2 1-2 2-1l2 2 1 1-1 2h2c1 0 1 0 0 0-1 2-1 3 1 5 2 1 2 1 3-1l1-2v2l-1 3v2l3-3-1 3c0 3 1 3 2 1 0-2 1-2 1-1v1c-2 2-1 2 1 1 2-2 2-1 1 1-1 1-2 2-1 3v-1l1-1v2l-1 2 1-1h2l-2 1-2 1h3l3-3-1 1-1-1 1-2c2-1 1-2 0-1v-2-1c-2 1-2 0 0-2v-3l-3-3-1-2c0-1-3-5-7-8-2-2-3-3-1-4l1 2 2 1v-2c-2-1-2-2 0-2l3 3a104 104 0 008 13l1 4 1-2 1-2v3l-1 2c3 0 6-6 5-8 0-3-5-12-6-13v-1c2 1 2 0 1-3l1-3c1 1 4 6 3 7l1 1 1 2 2 2 1 5 1 5 1 2-1 1h4l6 1 4-1v1l-1 2 3 1h2l1-1c0-2 1-1 3 2l1 3-1-6v-2l2-1c2 2 2 1 0-2l-4-5 1 2v6c-1 2-2 2-2-1 0-5-1-6-6-5l-4 1-1 2c0 2-2 3-2 1l-1-2c-1-1-2-3 0-4l1-2c2-3 0-7-4-12-6-6-7-8-7-9l-2-4c-2-3-5-2-7 1-1 2-1 2-5 1l-5 1-1 3-2 2-4 1c-4 0-5 1-6 4 0 4-2 5-7 7l-3 2v3l1 4v2l1 1 1 1 1 1c3 0 10 9 14 19l2 2 2-2zm-14-28h0zm26-12l1-1 1 2-1 1-1-2zm8 40v1c0 1 0 1 0 0v-1zm35 1c0-2-1-2-1-1l2 2-1-1zm6 0l-1-1h-1l1 1h1zm-48-2v-2-1c-2 1-2 5-1 5l1-2zm38 0l-1-1v2h1v-1zm-89-1l-1-1-1 1v1l2-1zm16-1c1 0 0 0 0 0l-1 1c0 1 1 1 1-1zm163 1l-1-1v1l1 1v-1zm17 0l-5-14-1 1 6 14v-1zm-117-4l-1-5-1-1c-1 0-1 1 1 6l2 4-1-4zm24 3l-1-2c-1-2-2-2-2-1 0 3 2 5 3 3zm5 0l-3-4c-1 1 1 5 2 5l1-1zm-54-2v0zm57-1c-2-4-4-3-2 0 1 3 2 3 3 3l-1-3zm-54 1v-1h2l1-5c-1-2-1-2-1 0l-2 1c-1 1-2 1-1 2v2l1 2v-1zm35 0l-1-1h-1l1 2 1-1zm4-2l-2-1 1 2c1 3 2 2 1-1zm20 1l-1-1-1 1h2zm-111 0v-1l-1 1v1l1-1zm39-1h-1l-1 1h1l1-1zm76-1c-1-3-3-5-4-4l1 2 3 3c1 3 2 2 0-1zm-49 0v0zm3-1c0-2 0-3-1-1l1 4v-3zm111 1l-4-8 2 7c1 2 2 2 2 1zm-104-3l-1-2v2c1 3 2 2 1 0zm42 1l-1-1v1c0 2 2 2 1 0zm87-2l-3-5 3 8v-3zm-96 2l-3-3v2c1 2 2 2 3 1zm-47-2h-1c0 1 1 3 1 1v-1zm23 0l-2-2 2 4v-2zm14 2l-2-3c-1-2-1-3-2-2l1 3c1 2 3 3 3 2zm3-4l-2-1 2 5c2 0 1-2 0-4zm81 2l-1-2v2c1 2 1 2 1 0zm25 0l-1-2 1 4v-2zm-118 1l-1-1v-2l-1-1v2c0 2 1 3 2 2zm60-2v1l1 1-1-2zm51 2l-4-9 1 4 2 5h1zm-55-2l-1-1v1l1 2v-2zm-94 0l-1-1-1 1 1 1 1-1zm66 0c1-1 0-2-1-3h-2c-1 2 3 5 3 3zm-26-2l-1-1v2c2 1 2 1 1-1zm31 1l-2-2v1c0 2 1 2 2 1zm5-1h-1l1 1v-1zm-17 0c0-1-1-2-3-2l-2-1 2 2 3 1zm84-1a80 80 0 01-3-5v2l1 3 2 1v-1zm-67-4l-5-1c0 1 2 3 4 3 3 1 3 0 1-2zm11 1c-1-1-1 0-1 1h1v-1zm6 1l-1-2c-1-1-1-1-1 1l2 1zm18-5c-1-1-1 0-1 2v3l1-2v-3zm-77 3l-1-2 1 3v-1zm3-2v2c1 2 1 2 1 0l-1-2zm16 3l-1-2-1-2-2-1c-2 0-2 2 0 4 1 2 4 2 4 1zm12 0l-2-3-3-2h-2l2 3 3 2h2zm5-1c-2-2-5-5-6-4l6 5v-1zm11 1c1-1-2-5-4-5-1 0-1 1 1 3 2 3 3 3 3 2zm81-1v-2l-1 3c1 1 1 1 1-1zm-121-2c-1-1-1-2-2-1l1 2c1 2 2 2 1-1zm5 1c0-2-1-3-2-2s0 4 2 4v-2zm12 1l-2-3-4-2 2 4c3 2 4 2 4 1zm27 0l-1-1v2l1-1zm51-1c-1-1-2 0-1 1h1v-1zm-46-1c0-1-1-2-3-2-1 0-2 0-1 2h4zm17-4v0zm-169 3l-1-1 2 2-1-1zm6-1l-1 1 1 1v-2zm139 0l-1-2-2 1 2 3 1-2zm-12-1c0-2-3-3-4-3-1 1 0 3 2 4 3 1 4 1 2-1zm-132-1v1l1 1-1-2zm97 1h-1c0-1 0-1 0 0v1l1-1zm119-1v0zm-219-1h-1l1 2v-2zm157 1l-3-4v3c1 2 2 2 3 1zm-61 0l-3-4v2c2 2 2 3 3 2zm32-1c0-1-3-3-4-2l4 3v-1zm24 0l-4-4c-1 0-1 2 1 4 1 1 4 2 3 0zm-28 0c-1-2-2-2-2-1-1 1 0 2 1 2l1-1zm-125-3c-1-1-1 0-1 1h1v-1zm5-1l-1-1c-2-2-3 1-2 3h2l1-2zm107 1h-3l2 1c1 1 2 0 1-1zm28 1l-1-2-4-2 4 5 1-1zm5-1l-1-1h-2c-2-1-1 1 1 2s3 1 2-1zm-134 0c0-2-1-2-1-1v3l1-2zm96 0c-1-2-3-2-3-1l3 3v-2zm53-1c0-2-1-2-2-2-2 0-2 1 0 3s3 1 2-1zm-27 1l-4-4c-1 0-1 1 1 3s3 2 3 1zm77-2v2h1l-1-2zm-94 1l-2-1v1l1 1 1-1zm48 0l-1-1-1 1 1 1 1-1zm12 0v-2l-1 2 1 1v-1zm-56-1c0-1-2-3-3-2v1c1 2 3 2 3 1zm34-2c-1-2-3-3-4-2 0 1 4 5 5 4l-1-2zm-145 0v-2l-2 3c0 2 1 1 2-1zm15 2v-1l-1 1h1zm77-1l-1-1v2l1-1zm48 0c0-2-3-5-5-5-1 0 0 3 3 4l2 1zm-65-1a1 1 0 00-1 0v1l1-1zm26-1l-2-2h-2v2l4 2v-2zm55 1l-4-4c-2 0-1 1 1 3 1 2 3 3 3 1zm28-2v0zm8 1c-1-1-1 0-1 1h1v-1zm-183-1l1-3-3 5c1 1 1 0 2-2zm105 0c-2 0-2 1-2 2l2-1v-1zm20 2c0-1-5-6-6-5l3 5h3zm25-2c-2-2-3-1-2 1l2 1v-2zm-156 0v-1l-1 1v2l1-2zm115 1l-1-1v2l1-1zm-102-1l2-4c3-3 2-4 0-2l-2 3-1 1v3l1-1zm147 0l-1-1c-1 1 0 2 1 2v-1zm-14-1c-1-1-2-3-4-3-1 0-1 1 1 2 2 2 4 3 3 1zm-128-1h-1l-1 1c1 1 2 0 2-1zm86 1l-1-2-1-1h-2l4 4v-1zm19 0l-4-4v2l3 3 1-1zm17-2c-1-2-4-4-5-3s5 5 6 5l-1-2zm-141-1l-1-2-2 3 1 1 2-2zm67 2l-1-1v1h1zm106-3l-1-2-1 3 1 2 1-3zm-167 0v1l-1 1h1v-2zm65 2l-1-1c0-1-2-1-1 1h2zm39 0l-4-4v3c1 2 3 2 4 1zm4 0c0-1-2-4-3-3v2c2 2 3 2 3 1zm-34-1l-1-1v2h2l-1-1zm80 0l-1-2h-2l2 3 1-1zm4-2c-1-1-2 0-1 2h1v-2zm40 1h-1l1 2v-2zm-130 0c-1-1-2 0-1 1h1v-1zm60 1l-4-4c-2-1-2 0 0 2 1 2 4 3 4 2zm17-1c-1-2-2-3-5-3-2 0-2 2 1 3 3 2 4 2 4 0zm4 0l-1-1h-1v1c1 2 2 2 2 0zm13 0l-1-1 1 2v-1zm-175 0v0c0 1 1 1 0 0zm27-8h-2l-7 8 5-3 4-5zm190 6v-2l-1 2 1 2v-2zm-205-1l1-2-3 4 2-2zm63 1c0-2 0-2-1-1-2 2-2 2 0 2l1-1zm21 1v-1l-1 1h1zm53-1l-3-3c-1 0-1 2 1 3 2 2 2 2 2 0zm71 0h-1l1 1v-1zm-134-1l-1-2-2 3c1 1 3 0 3-1zm48 1l-4-3c-2 0-2 0 1 2 2 2 3 2 3 1zm73 0v-1l-1 1a1 1 0 001 0zm-136-2h-1l-1 1h1l1-1zm24 0l-1-1-1 1 1 1 1-1zm71 0l-4-1c-1 1 2 2 3 2l1-1zm-87 0v-1l-1 1v1l1-1zm12-1c0-1-2-1-2 1v1l2-2zm52 1l-3-2 2 3 1-1zm-154-2c0-1 0-2-1-1v2c1 1 1 1 1-1zm19 1c0-1 0-1 0 0v0zm11-1l2-3-5 4c-1 2 0 1 3-1zm18 1c1-1 0-1-2-1s-2 0-1 1h3zm37-2h-1v2c1 1 2 0 1-2zm9 1l1-1c-1-1-3 1-3 2-1 1 1 1 2-1zm72 0l-3-1 2 2 1-1zm4 1l-1-1v1h1zm-22-1l-2-1c-1 1 0 2 2 2v-1zm13 0l-3-2 1 1c1 2 2 2 2 1zm-50-1a1 1 0 00-2 0l1 1 1-1zm-6 0v-1l-1 1h1zm17-1l3-1-6 2 3-1zm-74 0l-1-1-1 1 1 1 1-1zm107 0l-2-2c-1 1 0 3 1 3l1-1zm24 0l-1-1-1 1h2zm14 0l-1-1v1h1zm-20 0l-3-3v2l3 1zm-148-2l-1-1-1 1 1 1 1-1zm64 1a1 1 0 00-1 0 1 1 0 001 0zm5 0c1-1-1-3-2-3-2 0-2 1-1 2s2 2 3 1zm15-1c0-1 0 0 0 0v0zm41 1l-1-1 1 1zm-23-1h-1v1l1-1zm18 0c0-2 8-3 10-1 2 1 3 0 2-2l-4-1h-1l-5 2c-4 2-4 3-3 3l1-1zm-116-3l-2-3-1-1c-1 1 1 5 3 6 1 2 2 0 0-2zm48 0l1-1c2-1 1-2-1-4l-2-1-23-2c-2 0-2 1 1 3l2 4c0 2 0 2 3 2l6-2c4-2 6-2 9 1 2 2 3 3 4 2v-2zm42 2l4-1 18-6c6-3 9-3 5-1h2l3-2c-1-1-1-1 1-1 2-1 3-3 3-5-1-1 0-2 5-4l5-3-7 2-7 2h-2l2-1-8 2-9 4v-1l1-1 4-2 2-1h-2l-4 2c-2 0-3 1-3 2v1l-1 2 1 2-12 5c-2 1-3 1-3 3l-2 1-2 1 3 1 3-1zm4-1c0-1 4-3 5-2l-2 1-3 1zm20-9l7-3 1-1h3l-15 6 4-2zm-54 9h-2l2 1v-1zm73 1l-2-1 1 1h1zm-30-1h-1v1l1-1zm-93-2c0-2-2-2-2-1l2 2c1 2 2 1 0-1zm10 1c1-1-1-2-2-1v1h2zm52 0v-2l-4-2c-5 0-8-2-8-3l1-2 1-2 2-4 1-1c-1-2-3-2-4-1l-2 4c0 3-3 6-4 6l-1 1 1 1c3 0 10 2 11 4 2 2 4 3 6 1zm98 0l9 1 1-1h6c3 0 5 0 4-1l-1-1h-2c-1 2-10 1-12 0h-13-3c-2-2-4-1-3 0l-1 1c-2 1-5 0-5-1h-13c-2-1-2-1-2 1l4 2 31-1zm-198-3v1c0 1 0 2 1 1l-1-2zm43 2l-2-1 1 2 1-1zm190 0l-1-2-3 1h-2v-2l-1-1-1 2c0 1 1 2 3 2h5zm8-1h-5l-1 1 6-1zm-160 0v-1l-2 2 2-1zm32 0h-2l1 1 1-1zm-6-1l5-3 7-4 1-1-1-1v-3h-1l-2-1v-1l-2 4c0 1-1 2-2 1l-1-1-1 2-2 1-1 1-2 1c-1 0-1 0 0 0l1-2c0-1-2-2-3-1l-2 2-1 2 1 1 2 3 2 1 2-1zm33 0l2-1-5 1-1 1 4-1zm22 0l-1-1-1 1 1 1 1-1zm-155-1c-1-2-2-3-2-1l2 3v-2zm150 1l-2-1c-2 0 0 2 2 2h2l-2-1zm24-1l-2-1v1h2zm18 0h-1a1 1 0 000 1l1-1zm-6-1c-1-1-1 0-1 1h1v-1zm-191-1l-2-1 2 3v-2zm164 0c-2-2-3-2-4-1l-1 1 6 2-1-2zm10 1l-2-1v1h2zm14 0l-1-1v2l1-1zm-163-1l-6-10c-3-1-2 0 0 4l3 6c-1 1 0 1 1 1l2-1zm19 0h-2l1 1 1-1zm125 1l-2-2 2 2zm33-1l-4-2c-2 0 1 3 3 3l1-1zm16 0l-8-8h-2l10 9v-1zm-189-1c0-1 0 0 0 0v0zm-19-1h-1l1 1v-1zm111 1c3-1 3-2 1-5-1-2-2-2-2 0a235 235 0 01-1 4l-2 1 1 1 3-1zm101 0l-2-2 1 3 1-1zm-32-1l2 1c2 0 3 0 2-1l-4-1c-2 0-3 0-2 1h2zm21 1c0-2-8-9-9-9s-1 1 4 6l5 3zm-209-2v0zm4 0h-2l2 1v-1zm165 1l-1-2c-1-1-1-1-3 1l-2 1 2-1h2c1 2 2 2 2 1zm9 0l-3-3v2c2 2 3 2 3 1zm5 0l-4-2 3 2h1zm-169-3c-1-1-1-1-1 1 1 1 1 2 2 1l-1-2zm111 1c0-3-1-4-2-1v2c1 1 2 1 2-1zm48 0l-3-1c0 2 1 3 2 3l1-2zm-147 0c-2-5-6-9-6-9l-1 1 7 9v-1zm30-1l-1-1v2l1 1v-2zm146 2c0-2-7-8-8-8-2 0-2 0-1 2l2 1 4 3c1 2 3 3 3 2zm14 0l-2-2 1 2h1zm-206-1h-1c0-1 0-1 0 0v1l1-1zm21-1l-3-2-1-1 1 1 1 3c1 1 2 1 2-1zm15 1v-44l2-71 1 57a289 289 0 002 58 2999 2999 0 001-120l-3 3-8 4-5 3h1l1 48a11569 11569 0 001 55l2 2v-2-8a1931 1931 0 012 15h3zm46-1l1-2 2-2v-1l-1 2v-2l1-3c0-2 0-2-1 0-3 3-4 5-4 7-1 3 0 3 2 1zm133 0l-1-1-2-3c0-1-2-2-2 0l2 3c2 2 3 2 3 1zm3 0l-2-2 1 2h1zm-235-2h2l-7-7c-2 0-1 3 1 5s2 3 1 3h1l2-1zm187 1l-2-3h-1l-2 1-2 1c-2 1 0 1 4 1h3zm7 0l-1-3-2-2-1-1c-2 1-2 1-1 2l2 2 2 3 1-1zm7 0l-6-5c-2 0-2 1 1 3 2 2 5 3 5 2zm-115-2l-1 1v1l1-2zm103 0l-1-1v2c2 1 2 0 1-1zm-116-1v0zm57 1l1-1h1l-1-1-4 2 3 1v-1zm96 1l-6-6 2 3 4 3zm-219-2c1-2 1-2-2-4l-7-5-5-4c-2-2-3-1-1 1l13 14 2-2zm59-1l1-6a687 687 0 000-94l-1-3-1 2v6a8222 8222 0 011 95zm177 2l-1-1-1 1 1 1 1-1zm-180-3a48120 48120 0 00-1-107l-1-3v15a2222 2222 0 001 98l1-3zm20 2h-1v1l1-1zm26-1l3-3c0-1-3-1-5 1l-2 4 4-2zm57-1l4-3-3 1-9 4 8-2zm-39 1l-1-1c-1 0-2 1-1 2s2 0 2-1zm93 1l-6-5c-2 0-2 0 1 3 2 2 5 3 5 2zm18-1h-2 2zm-204-1l-4-5 3 6 1-1zm102-1l4-2a162 162 0 0024-11l4-3-14 6a128 128 0 01-9 4c-1 1-8 4-11 4l4-3a772 772 0 01-4 1c-3 1-4 2-3 4h5zm76 0l-2-2c-1 1 0 3 1 3l1-1zm19 0a1 1 0 00-1 0 1 1 0 001 0zm-220-1c0-2 6-5 10-7l8-1h5l-1-3-1-5-2-6a80 80 0 00-5-13l-2-4-2-3h-4v-1c1-2 1-3-2-5a68 68 0 00-21-7l-2-1h2a56 56 0 0122 7l2 1 2 1-6-9-2-5 3 3 2 3 1 1 1 2 2 1-2-5c-2-4-3-12-2-11l2 4 1 3v-3l-1-9c-2-10-2-10-3-9l-1-1c1-1 0-1-1-1l-3 1h-1l-2-1 4 4v1c-1 1-3 0-3-1l-10-1a326 326 0 01-12 2l10 1c9 0 7 1-1 2-8 0-10 1-8 2h7l10-1c4 0 5 0 4-1l-1-1h-2c0-1 2-2 5-1l2 1-1 1-1 1v1l-4 1-20 2 1 2c1 3 2 4 8 3l11-2-7 2c-6 2-8 2-13 2-2 0-3 0-2 1a109 109 0 0026 1l-16 2-9 1 4 2 2 1 3 3a3876 3876 0 000 1c-7-3-10-4-9-2s8 6 12 6v1c0 1 4 4 13 8l5 3-16-8-13-4a99 99 0 0023 15l4 2-19-9-14-8c-1 1 8 8 11 9l2 2 1 1v-1l5 1v1l-5-1 9 5 3 3 2 1 2 1 3 1 1 1c1 2 0 2-2 0l-6-3-6-3c-1-2-3-2-3-2l-6-4-7-4-2 1 6 5 8 6a182 182 0 0116 12c0-1-3-3-7-4l-6-5-5-2-4-3c-4-4-5-4-5-2s2 4 7 8l4 3 6 4 2 1 2 1 1 2-3-2-7-4-7-4c-3-3-4-2-2 1l16 13 5 4-7-4-8-6c-6-4-6-4-6-2 1 2 2 4 7 7l8 6c5 4 7 5 7 3zm-1-10c-1-1-1-2 1-1l1 2-2-1zm1-54l1-2c0-2 1-2 2-1 2 2 1 2-2 3h-1zm-18-4l5-1-2 1h-3zm8-1c0-1 11-3 12-2l-2 1h-4l-6 1zm20 68c0-1-1-1-1 1h1v-1zm181 2l1-2 2-1 2-1c-1-2 1-2 4-1 2 1 4 1 2-1l-1-1v-1a110 110 0 00-15 6l-3 1h3l5 1zm-86-1c2-1 1-2-1-3l-1-3c0-2 1-3 2-1h3c2-1 2-2 0-2-3-1-3-2-1-3l1-1c-2-1-4 1-6 5l-2 3c-1 1-1 2 1 2 2-1 2 0 1 1s-1 2 1 2h2zm32-1l1-1c-1 0-5 2-3 2l2-1zm-45-7a172 172 0 017-17l-5 10a9876 9876 0 0110-16l10-14a429 429 0 016-8l-15 27c1 1 6-7 9-11l3-4-2 4a330 330 0 00-5 11l5-7 4-5c1-1 2-3 3-2v-1l1-1 1-2 2-1c-1-2 0-2 1-2v-1l1-1c1 1 4-4 3-5v-1h1l3-2 2-4c-1 0 2-5 4-5l5-5a53 53 0 005-9l2-3 7-14-1 3a1166 1166 0 0120-35c1-3 1-3-1-5l-7-6-10-8c-5-5-6-5-7-1l-1 4a715 715 0 00-15 30 205 205 0 01-18 30 812 812 0 00-15 26 75 75 0 00-9 17c-1 0-5 8-5 11a279 279 0 0113-21 183 183 0 00-10 22l-2 5-3 5c0 2 3-3 10-17 9-17 14-25 15-25l-2 5a384 384 0 00-18 34l-7 14-3 8h5l3-7zm41-49c0-1 2-4 3-3v1l-2 2h-1zm-14-6l1-1v-1 2h-1zm42-36l1-1c0-1 0 0 0 0l-1 1zm2-3l1-2 1-2 1-2v2l-3 4zm-2-12l-3-3h4c4 0 6-1 4-2l-1-1 2 2 3 1v1l-1 1-8-1 2 2 1 3-3-3zm-2-10h1v1c0 1-1 1-1-1zm66 123l-3-3c-2 0-2 1 0 3h3zm4 0l1-2h-1l-2 1c-1-1-1-1-1 1h3zm-157-11c0-8 0-6-1 3v5l1-8zm-58 10l-1-1c0-1 0 0 0 0v1h1zm97-1l2-1h-2c-4-2-6-1-4 1h4zm56-1l6-4-12 6h1l5-2zm-187 1l-2-3v2c1 2 2 2 2 1zm89-5c-1-1-1 0-1 2s0 2 1 1v-3zm149 4c0-1-2-2-3-1l3 2v-1zm-191 0l-1-1v1h1zm133 0v-1l-1 1h1zm53 0c0-1-3-4-5-4-1 0-1 1 2 3l3 1zm-94-1l3-2 7-2 5-2 3-2-5-1-6 1-1 1c-2 0-3 1-1 2s0 2-3 1h-4l1 1c3 2 2 2-2 1s-5-1-3 1c1 2 4 2 6 1zm88-1c-2-2-2-2 0-2l4-1 3-1c0-2 0-2 3 0 1 1 3 1 2-1-2-1-3-2-5-1l-9 3-3 2 2 1 3 2v-2zm-195 0h-1l1 1v-1zm85-6l3-6c-1-1-7 11-7 12s2-1 4-6zm-64 4l-2-60-1-32-1 1-1 44v44l2 2c2 2 4 3 3 1zm-54-1l-2-3h-1l2 4 1-1zm160 0l5-3-8 3c-3 2-1 2 3 0zm30 1v-1l-2 1h2zm25 0h-2c-1 0-1 0 0 0h2zm30-1l-2-2c-1 0-1 2 1 3 1 1 2 0 1-1zm5 0s0-1 0 0l-2-1h-1l2 2 1-1zm-154-6v0zm40 5c1-1-1-2-3-2s-3 1-2 2h5zm83 0l1-1h-2c-3 1-2 2 1 1zm-225-3l-1-2v-1 3c1 2 1 3 2 2l-1-2zm96-1c-1-1-1-1-1 1l1 2v-3zm53 2c-1-2-9-3-9-2l2 2h7zm82-1l4-1 1-1 4-2a144 144 0 0015-6l5-2 8-4c4-1 9-4 9-5l-10 4a2943 2943 0 01-36 17zm-144-7l-1-4v6c0 5 0 4 1-2zm86 4c3-1 3-2 2-2h-4l-7 1c-5 1-6 2-1 2l3 1 7-2zm22 2l3-2 2-1-6 3h1zm55-1h-3l-2 1h3c3 0 3 0 2-1zm-196-1l-1-1v2h1v-1zm99 1c0-1-5-2-7-1-1 1-1 1 1 1h6zm100 0l1-2 2-1h-2l-2 1v1l1 1zm-45-1h-2l2 1v-1zm-68 0l4-1c5 0 3-1-2-1l-2-1h8l21-2c2-2-11-2-23 0h-2l2-1 5-1 8-1h-2v-1c0-1 0-2-2-2h-5c-2-1-2 0-6 3l-5 4s-2 3-1 4h2zm11-9l1-1 1 1h-1-1zm65 8l5-3h-1l-4 2-6 2 6-1zm28 1v-1h-1c-2 1-1 2 1 1zm-241-2l-1-2c-1-2-1-2-1 0v2h2zm51-12a453 453 0 01-1-66l-1-1c-2 0-2 0-2 22a81077 81077 0 011 53l3 4v-12zm119 11l2-1h-9a318 318 0 01-13 2l20-1zm129 0l-4-2c-6-2-7-2-7-1l4 3h7zm-119-1l2-2-3 1-4 1c0 2 2 1 5 0zm124 0c2 0 3-2 1-2l-4 3 3-1zm-309-1h-1l1 1v-1zm119-7l-3 4c-1 4 0 4 1 1l2-5zm170 5l-3-2 1 2c3 3 5 3 2 0zm16 1v-1l-2 1h2zm11-1l1-1c-1-1-2 0-3 1-2 2-1 2 2 0zm-205-1l-1 1 1 1v-2zm169 1l-1-1v1h1zm4 0l-1-1v1l1 1v-1zm-171-1c0-1 0-1 0 0v0zm35-6v-1l-5 8 2-2 3-5zm48 4l5-3-7-2-4 2 4 1 4 1h-6l-8 2c-1 1-2 1-1 2h4l9-3zm80-1l3 1c2 1 2 0 1-2h-4l-3 2v1l1 2 1-2 1-2zm45 3c1-1 0-1 0 0h-1 1zm-317-1l-1-1c-1-2-1-2-1 0v1h2zm171 0h-2c-1 0-1 0 0 0h2zm10-3c1-2 1-2-2-1-2 0-6 3-5 4s5-1 7-3zm108 2l-4-2c-2 0-2 0-1 1l6 3-1-2zm18 1v-1l-3-1h-1l1 1c2 2 3 2 3 1zm-6-1l-10-3c-1 1 0 2 1 2l4 1h5zm10 0h-2l1 1 1-1zm-136-2l1-1h-14l9 3 4-2zm104 0v-1l1-1h-4l2 2c1 2 2 2 2 1l-1-1zm-38-2c3-2 3-2-2 0l-2 2 4-2zm-200-6zm131 6l-3-1-4-1 5 1c4 0 5 0 7-2 2 0 3-1 3-2l-19 1-1 1h-5c-4-1 2-2 12-2 6-1 7-1 3-2h9l2-3c2-1 2-3 2-3l-11 1h-9l3-1 2-1c1 1 14 0 14-1h-2l-6-2-7-1h-1l2-1 4-1h15-5c-8 2-8 2-3 3l7 1c1 0 2 0 2-2v-3-1-2l-2-1c-4-1-4-2-1-1l3-1h1l1-2-1-2-1-1 1-1 1-2-2-5-1-2c0-2 1-1 2 1l3 1 5 1h-1c-4 0-5 1-2 4l2 3-2-1c-2-3-3-2-2 1 2 4 4 5 4 2l5-2 5-1h2l2 1c0 2-1 2-2 1s-8 1-11 3l-4 2c-2 1 0 1 4 3l2 1a260 260 0 01-7 0l7 3 5 1h-12v2l5 2 11 1h15l-3 1c-3 1-3 1 0 2h6l4-2 8-4-9-2-7-1c-2-1-1-1 1-1h6l3-2-2-1c-4-1-2-2 3-1 6 1 7 0 5-2l-1-2 9 1 3 1c0-2-2-3-6-3l-10-2-9-2-5-1c-1-2-2-2 5 0 10 2 22 4 22 2 0-1-2-2-7-3h-5-3l-6-2-4-1h5l5 1 1-1c-1-2-10-4-15-4l-3 1-1 1h-2c-1 0 0-2 2-3l2-1h-2l-3-1-1-1c-1-1-1-1 1-1l4 2c5 2 12 4 14 3h1c2 0 2-1 0-4l-2-2-4-3h-2c2 4 2 4 0 2-3-3-3-4-1-5 1-1 1-1-1-2-1 0-1-2 1-2s2-1 0-4c-1-2-2-3-4-3l-4-1c-1 0-2 1-1 2l1 1c-1 1-5-3-5-4l-1-1-2-2c-1-3-3-7-5-7l-2-2h3c2 2 3 2 4 1l-2-3c-2-1-2-2-1-2l1-2 1-3-1-1-4 8-1 2a283 283 0 01-39 58c-6 7-9 12-8 14h-1l-2 1 1 1 4 2 6 2 7 1h7zm-15-8c-3 0-5-1-5-2h1l6 1c3 1 5 1 4 2l-6-1zm-3-3h0c-1 0-1 0 0 0zm70-2l-1-1-2-1-4-2 13 4h-6zm-66-3v-1l2 1v1l-2-1zm58-5c-1 0-1 0 0 0h3l1 1h-1l-3-1zm-53 0l-1-1 2 1h-1zm49-1h1l-1 1v-1zm-5-1h0c-1 0-1 0 0 0zm11-1l-2-1 1-1 4 1h2l-5 1zm-6-3c-1-2-1-3 1-2l1 1v1c1 2 0 1-2 0zm-40-1l-3-1 2-1a161 161 0 007-1c-5 2-6 2-3 3 3 0 3 1 1 1l-4-1zm58-1h4c1 1 1 1-1 1l-3-1zm-6 0l-4-1h7c3 1 1 1-3 1zm-8-3c-1-2-1-2 2-1 2 1 2 2 0 2l-2-1zm-32-2h1l1 1h-1l-1-1zm27 0h1v1l-1-1zm-25-4l-3-5c-1-2-2-2-2 0l-1-1v-3c1-3 2-4 3-3h1c2-1 2-1 2 1l-2 2h-2l2 3c4 8 6 12 2 6zm29 2l1-1v1h-1zm-6-2c-1-2-2-2-5-1h-3l2-1 2-1-5-4c-2 0-2 0-1-1v-3c-2-2-3-3-3-1v1l-1-1v-3l-1-2c2 1 2-5 2-6-1-2-3-3-4-2h-1v-2l1-2v-1l1 2 2 2c2 1 2 1 2-2s0-3-2-4l-1-2h1l2 1 1-2v-1 1c1 2 2 3 3 2l1 1v1h-1c0 2 3 7 5 8l1 1c-2 1 1 4 3 4l4 1 3 1h-3l-3-1-1 2 2 3c2 1 2 3 2 3l-4-2c0-2-3-7-5-8-2 0-2 0 0-1 1-1 1-1-1-3l-3-2-2-5-1 1 1 3 2 2h-4l2 2 2 2h-2c-2-1-2-1-2 2 0 2 0 3 2 3 3 1 4 1 3-2l1 1 1 3h-2c-4-1-4-1-2 2 1 2 2 2 4 2h1c-4 1-3 2 6 9l1 1-3-1zm-14-4l-1-1 1 1 1 1-1-1zm27-3v-1c1-1 3 0 3 1h-3zm-5-1l-1-1h3c1 1 1 1-2 1zm-27-2l1-10 1 2h1l-1 1c-1-1-1 2-1 6l-1 3v-2zm-4-6l2-7 1 1-1 2v2l-1 2h-1zm29-4c-3-2-2-2 1-2l2 2h-3zm-24-3s0-1 0 0v0zm13 60c2-1 2-2-6-2-6 0-7 0-3 1l3 2c0 1 3 1 6-1zm79 1l-1-3v3h1zm-46-1h-1v1l1-1zm-152-3c0-3 0-3-1 1l1 2v-3zm100 2c1-1 1-2-1-2l-2-1-2 1-2 3 7-1zm102 0l-3-1 3 2v-1zm-288-1c0-1-2-3-3-2l2 4 1-2zm241 0h-1v1l1-1zm-30-1c0-1-8-2-13-1l-3-1-2-1v1c-1 1 3 1 7 2h11zm-99-2l-1 1 1 1v-2zm-65-3a445 445 0 010-54h-2l-1 1v26l1 28 2 4v-2-3zm139 4h-1 1s1 0 0 0zm116-1l2-1h10v-1c-2-1-2-2 0-2h2l1-1 1-1 3-1 4-1c2 0 4-3 4-5l1-3 2-4 1-1v-1l-3-11c-1-5-1-5-4-8s-8-6-10-6l-3 2c-1 2-1 3 1 2l1 1h1l1 1v2l1-1h1v1 2c2-1 2-1 2 1l-1 1-1 2h1l1 2 1 1v1c0 1 1 4 2 3l1 2-1 2-5-5-4-7c-1-2-4-5-6-5l-2 1-1 1-1-2h-1v3l2 3 2-1-1 1-1 2 1 1v1c0 2 1 3 1 1 1-1 2 0 2 2-1 1 0 1 0 0l1 1v2h1l1-1v2l1 2 1 2 1 2c3 1 2 2-1 2l-2 1h-1l-1-2v-3l-1-2v-1c-1 0-2-1-2-3l-2-2c-1 2-2 0-3-3l-5-6-4-3c-1 0-4 3-4 5 0 3 2 5 3 3s2-1 1 1v4l1 1 1 1v1l1 1 1 2c-1 2 2 8 3 8l2 4-1 1-1-1-2 1c0 2-1 1-2-2l-2-7a10143 10143 0 01-8-15c-2-2-4-1-5 2 0 1 0 2 1 1l1 2c-1 2 1 3 3 2v4h1v2c-1 1-1 3 1 7l1 2h-1c-1-3-1-1-1 2 2 5 10 9 14 6zm4-23h1v1l-1-1zm1 24l-1-1-1 1h2zm-95-1l-2-2c-2-1-11-2-11 0l5 1 5 1h3zm8-2l-2-1h-1-4v1l2 2h2l3-2zm22 2h-1v1l1-1zm46 0l-1-1-1 1 1 1 1-1zm-6 0l-2-1 1 1h1zm-196-23v-23l-1 7a837 837 0 011 16zm-92 20v-1h-1l1 2v-1zm111-4c-1-3-2-1-1 3 0 2 0 2 1 0v-3zm81 4l-2-1v1h2zm61 0h1-2v1l1-1zm-58-2c0-1-1-3-2-2l1 4 1-2zm-191-1l-3-1 1 1 2 1v-1zm212 1l-15-2c0 2 1 2 8 2h7zm43 0v-1l-1 1c-1 0 0 0 0 0h1zm-135-5l-1 1v1h1v-2zm-132 1c0-1 0-1 0 0v0zm57-22l-1-24-2 1a211 211 0 002 46l1-23zm-50 22l-1-1h-1l2 1zm256 0v-1l-2 1h2zm-5-3l6-3c2-1 2-1 1-2l-8-1c0 1 1 2 4 2h-2l-12 1c-1 2 0 3 3 3l2 1c1 1 2 1 6-1zm-142-1l-1 1 1 1v-2zm19 1l-3-2h-4l1 1 3 1h3zm133 0c-2 0-2 1-1 1l1-1zm-254-4l-6-4c-3-1-2 0 2 4l6 3-2-3zm-7 0l-2-1 2 2v-1zm129 0c1-1-2-3-3-3l-5-1-4-1c1 2 4 3 8 5h4zm-84-3v0zm218 1l-1-1c-1 0-2 0-1 1h2zm-132-1l-1-1-3-1 1 1c2 2 3 2 3 1zm133-2c0-1-2-2-3-1-2 0-3 1-1 2l4-1zm-260-2l-3-1c-2 0-2 0-1 1l5 2-1-2zm101 1h-1l1 1v-1zm10 1l-3-3v2l3 1zm17 0l1-1-1-1-1-2c0-1 0-2 2-1 1 0 2 0 5-7a240 240 0 0116-28l5-8-1-1c-1 0-1 0 0 0l2-1c1-1 0-3-4-4-1-1-1-1-2 1v2c2 1 2 2 0 1h-2c-2 1-2 2 1 3 3 2 4 3 0 2l-4-1h-3l3 2c4 1 4 2 2 2s-2 1-2 2 0 2-1 1c-1 0-3 1-2 2l1 1 2 1h-5c-1 1-1 1 1 2l2 2h-8c-1 1-1 1 2 2l2 1h-11c-3 0-3 1-1 1l2 1h-2c-2 0-3 1-1 2 1 1 1 1-1 1l-2-1h-7l-2 1h3l9 2-6 1h-3l-4-1h-2l1 1 11 4 6 2c-1 1-9-1-16-3l-7-2c-1 0 11 6 16 7 5 2 7 3 4 3l-2 1s-4 0-7-2a1592 1592 0 01-12-4l9 7 2 1h1l3 1 1 1 4 2 3 2zm4-22l-3-1h4l3 1h-4zm2-3h-3c-1-1 0-2 1-2l4 1c3 1 2 2-2 1zm-16 23l-3-2-3-1 3 2 3 1zm141-2c2-1 1-1-2-1s-4 0-2 1h4zm-89-4l-3 3h1l2-3zm-129-10v-13h-2v10c1 20 2 21 2 3zm239 11c3-1 6-4 6-5h2l3-2c1-3 4-5 7-5s4-1 3-4v-6l3-4c1-1 1-2-1-1l-1-1-5-5c-1 0-5-6-5-8s-1-3-2-2l-3 1c-4-1-4-2 0-2 2 0 3-1 1-2-1-1-1-1-4 1l-4 2 1-1 1-1h-1-6l2-1 2-1c-1-2-5-2-5-1l-1 2c0 1 0 2-2 2l-1 2 1 18 1 2h5l1-1 2-1 3-1c1-2 2-2 2-1 1 1 1 0 1-2l1-1h1v3c-1 0-1 0 0 0h4l4-1 4 1c1 2 0 2-2 2-3-1-3 0 0 1 3 0 3 1 0 1l-4 1h-2l-1-1-6 6 3-1 2-1v1c2-1 2-1 0 0-3 2-12 12-14 17-2 2 0 2 4 0zm1-5l1-1v1l-1 1v-1zm2-2l1-1v1h-1zm4-1l1-1c1 1-1 3-2 3l1-2zm-12-19h1v1l-1-1zm-3-2l1-2 2-4v-1l1 1-1 3c-2 2-1 2 3 0l3-2-2 3-3 2h-4zm10-6l2-1 2-1 1-1-4 4-1-1zm-11-1l1-1 1-2-1-3c0-2 1-1 2 2v3c-1 2-3 2-3 1zm5-4l3-2-2 3-1-1zm13 0l1-1v1h-1zm-7-1l1-1h1c0 1-1 2-2 1zm-15 41l-1-4c-1-3-3-4-2-2l1 4c0 3 1 4 2 2zm-14-1c1-1-1-2-2-1v1h2zm23-1c1-3 5-9 7-10l1-2c1-2-4 2-6 5-3 3-5 8-5 9 1 1 2 0 3-2zm-170 1l-3-2c-1 1 1 3 2 3l1-1zm141-3l-3-1c-4-1-7-1-7 1l5 2h6l-1-2zm11 0c-1-2-3-2-2 0l2 2v-2zm11-7l-1-11a287 287 0 01-3-24l-2-3v-1a204 204 0 00-35-47l-9 22 3 3a93 93 0 0114 21l4 9 15 19 8 10-1 1a556 556 0 006 8l1-7zm-16 6c0-1-1-2-2-1v2l2-1zm-250-3h-1l1 3c0 1 0 1 0 0v-3zm246 1c-1 0-2 0-1 1h1v-1zm28-3l8-10v-3c-1 0-12 14-12 17 1 1 2-1 4-4zm-281 2l-1-1v2l1-1zm106 0l-1-1-1-1 2 3v-1zm42-9c7-11 11-19 10-20l-2 4-3 6-11 20 6-10zm103 10l1-1-2-1-4-1-8-3 3 5 10 1zm111-3a299 299 0 0042-19l18-9h2c0 1 0 2 2 1l1-1v-2h1c1 1 4 0 6-1v-1l-5 1h-4a35 35 0 00-7 3 257 257 0 00-22 10 805 805 0 00-34 18zm-357 2l-1-1-1 1h2zm95-4h-1c0 2 2 3 2 2l-1-2zm154 2l-3-3-3-3c0-2-4-3-7-3l-2-1-2-1c-2 0-2 0-2 2v1l-2-3c-1-2-3-2-4-2-1 1 2 5 5 6l2 1h1l8 4 7 2h2zm-13-7v-1l1 2-1-1zm19 7l-3-3-1-3h-1l-3 1 1 2 6 4 1-1zm18-6l1 1 5-7-3 1-3 1-3 1v4l1 5 1-4 1-2zm44 4v-1l-1 1v1l1-1zm23 0l3-1c1 0 1 0 0 0-1-1-5 1-5 2l2-1zm8-1l6-3 17-7 32-16a1148 1148 0 0058-30 133 133 0 00-20 8l-5 2-5 2-2 1-14 7a442 442 0 00-54 27 223 223 0 0116-6 119 119 0 01-20 9l-2 1v-1h-3c-2 1-3 3 0 2l-2 2-4 2h2zm40-21h2-2zm4-2l3-1 2-1-2 1-3 2h-2l2-1zm7-3l6-3-5 3h-1zm-299 26l-1-1h-1l1 1h1zm238-1s1 0 0 0h-1l-1 1 2-1zm-337-1h-1l1 1v-1zm106 0h-1l1 1v-1zm231-2a759 759 0 0165-30c14-6 16-7 15-8h1l5-2 8-5 8-4-3 1-5 2-8 3-17 7h-1l-1-1v2a207 207 0 01-25 11l-7 3a563 563 0 00-42 23c1 1 1 1 7-2zm-2-2l3-1-2 1c-3 2-3 2-1 0zm4-2l5-2a1334 1334 0 01-5 2zm37-16l2-1v1h-2zm14-7l6-2-1 1-2 1h-3zm13-5h-1 1zm-19 32l5-4-13 6 8-2zm-77 1c-1-1-4-2-5-1l5 2v-1zm34 0l-1 1 1-1zm-365 0v-1h-1c0 1 0 2 1 1zm17-1l-1-1v2l1-1zm4-1v-2l-1 2c1 2 1 2 1 0zm114 1l1-1c2 0 1-1-1-1l-11-5c-1 0 3 3 7 4l1 1h-3l-5-2c-2 0-2 0 1 2l4 2h6zm-92-1c1-1-1-3-2-3s-2 0-1 1l1 1h-7c-6 0-7 0-6 2l15-1zm292 0l-2-2v-1l2 2h2c2-2 2-4 0-6l-5-2c-4 0-4 0-5 4 0 2 0 3 2 4 3 2 5 2 6 1zm-323-1h-1l1 1v-1zm260 1l-6-6-2-1h-4l8 7h4zm101 0c1-2 0-2-2-1l-1 1h3zm-233-1h-2l1 1 1-1zm-21-1h-1l1 1v-1zm240-2l2-2-9 5 7-3zm-335-1h-1v2c1 1 1 0 1-2zm13 2l-8-1c0 1 1 2 5 2l3-1zm225 0l-5-5-3-1-2-1c-1 1 3 4 4 4 0 1 3 4 5 4l1-1zm-121-1l-3-1h-5c-2 0-2 0 1 1h7zm203 1l-3-3-1 1 4 2zm-335-2l-1-1v1l1 1v-1zm33 1l-3-2c-1 1 1 2 2 2h1zm7-1l1-1-8-2 5 4 2-1zm6 0l-2-1v1c1 2 2 2 2 0zm95 0c0-1-3-2-4-1v1h4zm103-1h-2l2 2v-2zm165 1v-1l-1 1v1l1-1zm-419-1h-2l1 1 1-1zm35 0h-1 1zm110 0l-4-2c-3 0-3 1-1 2h5zm220-1l-1 1h1v-1zm-334 0h-2l1 1c1 0 2 0 1-1zm92 0l-1-1v1l1 1v-1zm9 0l-11-4 3 2 4 2h4zm24 0v-2h-4c-1 1-1 2 1 2h3zm-135-2l-1-1v2l1-1zm115 0c0-1-3-2-7-2-2-1-2 0 1 1 5 2 6 2 6 1zm14 0c1-1 0-1-1-1l-3 1h4zm221 0h-1v1l1-1zm-368-2l-1-3v4c0 2 1 1 1-1zm22 0l-1 2h1v-2zm21 1h-3l2 1 1-1zm5 0v-1l-1 1h1zm10 0l-1-2h-1l1 3 1-1zm190 1l-3-2v1l3 1zm-194-4l-1-1c0 1 1 5 2 4l-1-3zm85 2l-9-2c-2 0-2 0 2 2l6 1 1-1zm123 1l-4-6-3-1h-2l3 3c2 3 4 4 6 4zm-105-1c1-2-6-4-8-3s-2 2 2 3h6zm100 0l-3-2-1-1-2-1 5 5 1-1zm-196-3v-1l1 2 4-2c0-1 0-1 0 0h2c1-2 2-2 4-2 1 0 1 0 0 0v-1l-5-3v3l-1-1-1-3c-1-1-2-2-1-3s-2-10-3-10l-1-3-1-4c-2-3-3-2-2 1v3l-1 3 3 6 3 3-2-1c-2-2-2-2-1 5l1 6-1-2-3-2c-1-1-1-1-1 1l4 8c1 0 2-1 2-3zm315 1h-1l-3 2 4-2zm54 1v-1l-1 1h1zm-411-1l-1-2-1 1 1 2 1-1zm20 0l1-1 1-1v-2c-1-2-6-2-5-1s-1 2-6 2l-4 1 7 2a212 212 0 016 0zm104 0l-4-1h-2l2 1h4zm104-2l-6-3 2 3c2 2 3 3 4 2v-2zm-87 0l-3-1c-4 0-5 1-2 2 2 1 5 0 5-1zm-164-1l-1-1-1 1 1 2 1-2zm14 0h-1l1 1v-1zm40-2l-2-3 2 5v-2zm76 4l-1-1h-1l2 1zm21-1l-3-2h-6l2 2h7zm93-2c-3-3-3-4 0-3l2-1 2 1c2 2 3 2 3 1l-7-6c-2 0-2 0 0 1l1 2-3-3c-5-4-6-3-3 1 2 3 2 3 0 3h-2-2c-2-2-4-2-4-1l5 6 1-2v-2l2 3 4 2h2l-1-2zm-217 2l-1-1h-1l1 1h1zm-21-2v0zm12-1c-1-1-2 0-1 1l1 1v-2zm137 0l-2-1h-3c-2 1-2 1 1 2 2 1 4 0 4-1zm12 0l-2-1c-2-1-4-1-4 1s5 2 6 0zm-163 0l-1-2c-1-1-2 0-1 2 0 1 2 2 2 0zm19-2h-1v2h1v-2zm-13 1v-1l-1 1 1 1v-1zm24 0l-1-1v2l1-1zm49-1c4-3 4-3 2-9l-2-7-1-3-5-3-3-2c-1 1 1 7 3 8l7 8-4-4-5-3v2l2 4 4 6-2-2c-2-2-2-2-2 0l1 4 1 3 4-2zm-57-2l-1 1c0 2 1 3 2 1l-1-2zm114 3l-3-2c-3 1-2 2 0 2h3zm117 0l-3-4c-1 0-1 3 1 3l2 1zm-220-1v-1l-1 1 1 1v-1zm124-1c0-1-4-2-6-1l-1 1c0 1 6 2 7 0zm20-1h-1l-1 2h1l1-2zm84 1l-2-3 1 3 1 2v-2zm-215-2l-2-2v3c1 2 3 2 2-1zm7 0l-2-2v1c0 3 2 4 2 3v-2zm19-2l-2-6v-3l-6-7c-2 0-2 0 0 7l2 8c0 2 5 6 6 6v-5zm-4-6l-2-3 4 4c0 1-1 1-2-1zm74 10l-5-1c-2 0-2 1 0 1h5zm37-2h-1v2l1-2zm135 1v0zm-318-2h-1l-1 2h1l1-2zm14 3a1 1 0 00-1 0 1 1 0 001 0zm17-1l-1-1v2l1-1zm14 1v-1l-1 1h1zm17-1l-3-9-1 4c0 3 2 6 3 6l1-1zm-56-2c-1-1-1 0-1 2h1v-2zm13 1l-1-2v3c1 1 1 1 1-1zm109 1l-1-1c-2 0-2 0-1 1h2zm25-1c2-1 2-2-2-3-2-1-3 0-5 1l-3 1 3 1h7zm12 0c0-1-3-2-4-1v1h4zm87 0l-1-1c-1-1-1 1-1 1h2zm-117-1h-2c-2 0-1 1 1 1s2 0 1-1zm103 0l-4-4-1 1v2l4 2 1-1zm-235-1l-1-2h-1l1 4 1-2zm20 0v-1l-1 1 1 2v-2zm-13 0l-1-1v2l1-1zm17 0l-1-1 1 2v-1zm11-1l-1-1 1 2v-1zm15 1l-1-3-1-1c-1 1 1 4 2 4zm106 0c1-1-2-2-5-3-3 0-2 1 1 2l4 1zm11 0v-4h1l2-1-3-4c-1-1-2-1-1-2l1-3 1-1 1-1 1-2c2-2 2-3 1-4 0-2-1-2-2 1l-1 2-2-1c-2-2-4-1-4 1l-2 2v2c2 1 3 0 3-2l1-2c2-1 2 0 1 1v2l1 1h-1c-1 0-3 1-2 2v1c-2 0-3 2-3 2l1 1 1 1h-1c-2-1-3 1-2 3h-1l-1 1c2 1 6 0 6-2l1-2 1 1 1 1-1 2-1 2v2h3zm285-1l2-1c1 0 1 0 0 0-2 1-1 2 1 2l17-10c1-1 1-1-1-1l-2 1-2 1-4 1-14 7c0 2 2 1 3 0zm-424-1h-1l1 1v-1zm59 0l3-3 4-4h4l-1-1h-2l1-1 2-1-3-3c-4-4-6-5-6-4l2 6c2 2 2 3 1 3l-1 1v1l-1-3c-1-1-2-4-5-6l-3-3 2 1 2 1-2-5c-3-3-5-4-5-2l1 6c1 5 2 6 5 10 3 3 4 4 0 1l-3-2 1 5c1 4 2 4 3 4l1-1zm53 1v-1l-1-2c0-1-1-2-2-1v1l-1 1c-2 1-2 2-1 2h5zm22 0h-1l1 1v-1zm95-5l-3-4-1-2-1-2h-2c-1 2-1 2 1 1l1 2 5 8 1 2h1l-2-5zm-261 4c0-1 0-1 0 0v0zm16 0l-1-1c-1-1-2 0-1 1h2zm114 0a88 88 0 0028-25l1-4 4-8 2-5 2-4-2-9-3-8-4 13c-1 5-3 10-10 21l-2 5-7 7-6 5c-3 3-10 5-16 6-5 0-5 0-4 1h6l4 1h-4c-6 0-7 0-5 1h11l6-1c0 1-12 4-14 3-2 0-2 0-1 1l11-1c3 0 3 0 1 1h2zm3-4l4-2-1 2h-3zm-89 1l-1-1v4l1-1v-2zm104 2l-1-1c-2 0-2 1-1 2l2-1zm102 0c-1-2-4-3-5-2-1 0 3 3 5 3h2l-2-1zm-243-1l-1-1v2c1 1 2 0 1-1zm13 0l-1-2c-1 1 0 4 1 4v-2zm168 0l4-9-4 7-1 2-1 1h1l1-1zm65-1h-1l1 2v-2zm-225-1l-1 1 1 1v-2zm28 0c0-2-1-2-1 0l2 3-1-3zm103 2h-1l1-2 2-1v-1l1-1-1-1-4 4-1 1v2l3-1zm83 0l-2-2h-2l2 2h2zm70-2c0-1-1-2-2-1l-1 1v2h1l2-2zm-287 1l-2-2 1 3 1-1zm156-1l-1-3c1-2 0-4-1-3v2l-1 2-2 1 2 2c3 1 4 1 3-1zm114-1c-1-3-2-5-2-3-1 1 1 6 2 6v-3zm12 1h-2v1l2 1v-2zm-307 0h-1l-1 1c1 1 2 0 2-1zm11-1l-1 1h1v-1zm38 1l-1-2c-2-2-2-2-2 0l3 3v-1zm104 0c0-1-2-2-3-1v1h3zm83-1l-2-3-1 5 3-2zm-232-1c-1-1-2 0-1 1 0 2 0 2 1 0v-1zm313-1l-1 1 1 2v-3zm-301 2l-1-2c-1 1 0 3 1 3v-1zm23-1v1s0 1 0 0v-1zm146 0v-1l-1 1c0 2 1 2 1 0zm115 1c1-1-1-3-2-3-2 0-2 1-1 2 0 1 1 2 2 1h1zm-49-1c0-1-4-5-6-5h-2l2 3 4 3 2-1zm-244-3c-1-1-1 1-1 3 1 1 1 1 1-1v-2zm46 3l-2-4v2l2 2zm96-1l-1-1c-2 1-3 2 0 2l1-1zm7-1l1-1 1-1 2-2v-2c-1-1-5-1-4 1l-1 1-1 1-1 2v3c2 0 3 0 3-2zm20 1l-2-2v-1l4-1-4-3-1 2-1 2v3c1 2 4 2 4 0zm68 1l-4-6c-1 0-1 2 1 4s2 3 3 2zm64-1l-3-1h-3c-2 1 1 2 4 2l2-1zm7 0l-1-2-3-2c-2-3-3-3-3-2l2 4c1 0 1 0 0 0-2 0-2 1 1 2 3 2 3 2 4 0zm-255-1v-3l-1-2c-1-1-1 0-1 3l2 4v-2zm180 1l-2-2c-1-2-3-1-1 1 1 2 3 2 3 1zm-220-1h-1l1 1v-1zm8-1v0zm16 1l-1-1c-1-2-1-2-1 0l1 2 1-1zm146-6l1-1v-6c-2-2-3-1-3 0l-1 1 2 2v2l-2-2-2-1c-1 1-1 3 1 5l2 2h-1c-1-1-1 0-1 2v3l2-4 2-3zm-39 4l-1-1-1 2c1 1 2 0 2-1zm-102 1l-2-4v3l2 1zm115-1c0-1-1-2-2-1v1h2zm71-2c-1-2 0-4 1-2h3l-1-2v-2l3 3c1 2 3 3 3 2l-3-4c-3-4-4-4-7 2-2 3-2 3-1 5 2 2 3 0 2-2zm244 2h-1v1l1-1zm-424-3c-1-3-2-4-1 0 0 2 1 4 2 3l-1-3zm239 2c0-2-1-1-1 0v1l1-1zm2 0v-1l-1 1 1 1v-1zm6 0l-4-2c-1 1 2 3 3 3l1-1zm-285 0h-1v1l1-1zm7-1c0-1 0-1 0 0v0zm160 1v-1l-1 1h1zm123 0c0-1-1-2-3-2v2h3zm-274-1l-1-1v1h1zm72-1v-3c1 2 2 1 3-1v-2l-1-3c0-2-9-10-10-10-1 1 1 5 6 9l5 5-3-1-4-3-2-1 1 2 3 4-2-2h-1l3 7 2-1zm47 0c0-1 0 0 0 0v0zm162 0v-2-1l-1 1c-1 1-2 2 0 3 1 1 1 0 1-1zm167 1l2-1 1-2-1 1-2 1c-2 0-3 1-1 1h1zm-460-1v-1l-1 1v1l1-1zm18 0v-1l-1 1v1l1-1zm4-3h-1l1 3 1 1v-2l-1-2zm150 2v1c-1 1-1 1 0 0v-1zm96 1l-1-1-1 1 1 1 1-1zm-238-1l-3-3c-1 0-1 2 1 3h2zm23-1c-1-3-8-8-8-6s1 4 4 6c4 3 4 3 4 0zm47 1l2-1c2 0 3-2 2-2-1-1-2-1-4 2-2 2-1 3 0 1zm-4-1h-2l1 1 1-1zm-35-1c0-2 0-3-4-6l-5-3 1 3 4 5 4 3v-2zm96 0c-1-2-1-2-2-1s0 3 1 3l1-2zm120 1c0-1-2-2-3-1l1 1h2zm165-1l9-4-7 2c-9 4-10 5-2 2zm-364 0l-1-3-1-2-4-3-3-3c-1 1 1 5 3 6l4 4c2 2 3 3 2 1zm14 0l1-2-2 1c-1 2-1 3 1 1zm49-1l-1-2c-2 0-3 2-1 3 1 1 2 1 2-1zm140 1l-6-8c-2 0 0 4 2 6 3 3 4 4 4 2zm6 1l-4-3 1 1c1 2 3 3 3 2zm3-1v-1c-1-1-2 0-2 1h2zm-114-3l2-4 1-2c3-5 7-13 7-16 0-4-6 8-9 17l-2 4-2 4 3-3zm96 3l-1-1v1c-1 0-1 0 0 0h1zm-165-2v-2c-1-2-1-2-2-1l-1 3h3zm156 0l-2-2v1l2 1zm198-1l7-3 4-2a58 58 0 00-16 7l5-2zm-430-1h-1c0 2 1 3 2 1l-1-1zm-7 0l-2-2v2c1 1 2 2 2 0zm17 1l-3-4 2 4h1zm50-4c-2-2-2-2-2 1v3l4-3-2-1zm6 3h-1l-1 1 2-1zm48 0c1-1 0-2-2-2-1 0-2 1-1 2h3zm-102 0c0-2-1-3-2-3l1 2 1 1zm108 0v-2l1-2-1-3-1 2-1 2c-2 1-2 1-1 2 1 2 2 2 3 1zm78 0h-1c-1 0-1 0 0 0h1zm-117-1c1-1 0-4-2-4-1 0-2 2-1 3 1 2 2 2 3 1zm170-4zm-254 3v-2h-1v3c1 1 2 0 1-1zm23-1l-4-5-3-2c-1 1 1 5 4 7l3 2v-2zm115 1v-2c-1-2-3 1-2 2h2zm121 0l-1-1v1l2 1-1-1zm-187-1v-2c1-2 0-2-2 0l-1 2h1c0 2 2 2 2 0zm20 0l-1 1c-1 1-1 1 0 0l1-1zm21 0c0-2-1-2-2-1v2l2-1zm-81-1c0-2-7-7-7-7-1 1 0 4 2 5l3 2c2 3 3 2 2 0zm87-1h-2c-2 1-1 3 1 2l1-2zm26 1c-1-2-4-3-4-1l4 2v-1zm272 1h-2v1l2-1zm5 0l3-1-6 2 3-1zm-375-4l-2-2-3-2c-2-2-3-2-3-1l4 4c4 5 6 5 4 1zm34 1c1-2 1-4-1-3l-2 1v-1l1-2-3 1-1 2 1 1v1a5 5 0 011 2l4-2zm148 0l-4-6-6-8-1-2-1-2c1-1 6 4 7 6l3 3 4 5 2 2-8-12-5-6a214 214 0 00-10-14l9 9 2 3 5 6c5 6 7 6 2 0l-3-6-2-1-1-1-2-4a1725 1725 0 00-5-8l5 3c0 2 4 7 5 7l-4-7-2-2-3-5-2-5c1 0 2-1 1-2v-3l1-2 2 2 3 4c1 3 2 3 2 0s1-4 2-3v3l1 2 1 4 1 2c1 2 2 2 3 1v-3l-1-3 1 1c2 3 2 4 2 1-1-2 0-5 1-5l1 3 5 5 4 3-1-2-2-4-3-4c0-2 0-2 1-1h2l1 1 7 9 1-2-3-4c-2-4-3-6-1-6v1l1 1h2c2 1 2 0 1-3v-4-3l-1-3c0-1-1-1-3 2-5 4-8 4-18 3-9-2-12-2-13 0l-2 1-6 20-2 4 5 7 7 9 13 16-1-3zm-14-21l-1-2 2 2v1l-1-1zm-202 21l-1-1v2l2 1-1-2zm26 1l-1-4c-1-1-1-2-3-2l-1 2 4 5 1-1zm27 0l-1-3v-1l2 1-1-5-2-4c1 0 0 0 0 0l-2-1c-2-2-2 0 0 3 1 4 2 5 0 3-1-1-2-1-2 2l5 6 1-1zm68 0v-2h-2v2h2zm99 0v-1c-1-1-2 0-2 1h2zm6 0l-1-1v1l1 1v-1zm-243-2c-1-1-1 0-1 1l1 1v-2zm90-4h-3l2 4 1 2v-2-4zm336 6h-1 1s1 0 0 0zm-363-2l-13-12c-2 0 0 1 5 7 6 6 8 7 8 5zm82 1l-1-3c-2 0-2 1-2 3h3zm7-4l-2 1v1l1 1c0 2 0 2 1 0v-3zm-58 3l-1-1-1-1 2 3v-1zm25 0c1-2-1-3-2-2v2h2zm17-2h-2c-1 2 0 2 1 1l1-1zm298 0l2-1-4 1c-3 2-1 2 2 0zm-359 1l-1-1-1 1 1 1 1-1zm49 0l-1-1-1 1 1 1 1-1zm-107-2c0-2-2-4-3-4l1 3c2 3 3 3 2 1zm243 1c-2-3-17-17-18-16l17 17 1-1zm195 0v-1-1h-1l-1 1v1 1l2-1zm-419-2c-2-2-8-7-9-6s8 8 9 8v-2zm105 1l-1-1-1 1 1 1 1-1zm56-3l3-4 1-3 5-15-2-2-2-2c0-1-5-5-7-5v-1l-1-1h-2a78 78 0 00-2-2h1l-2-1-2-1-9-7c-2 0-3 3-7 12l-3 11 2 2 5 5a574 574 0 0019 18l3-4zm-8-7l-5-5c-2-2-2-3-4-3l-3-1c-2-1-4-5-3-6v-2c-1-2-1-5 1-5l1-2 1-1v6c-1 2 0 5 1 7l4 1 3 1 2 1v2l1 3h1l2 1c4 2 6 1 7-2v-5-3c1-1 0-1-1-2h-5c-2 3-2 1-2-2s0-3-2-5l-6-3c-3 0-3-1-1-2 2 0 6 1 8 3s2 3 2 5v3l3-1c3 0 3 0 5 2s2 5 1 11c-1 4-2 6-6 6-1 1-2 0-5-2zm7-13l1-1a1 1 0 010 1h-1zm-25-2v-1l1 1c0 1 0 2-1 0zm290 26l-1-1-1 1h2zm-435-2l-6-5c-2 0-1 1 2 4s4 3 4 1zm95 1c0-2-2-2-3-1v1h3zm12-1l1-2v-2l-1 1-1 2v2l1-1zm-83-1c-1-2-5-7-7-7-1 0 0 2 3 5l4 4v-2zm76 1h-2l1 1 1-1zm-45-1l2-1-2-2-7-9 3 7 1 2v4l3-1zm15 0v-1c-1-1-2 0-2 1h2zm52 0l-2-1-1 1h-1l3 1 1-1zm-107-2l-2-2c-3-2-3-2-3 0l3 3 2 1v-2zm35 2c0-1-2-5-4-6l-2-1 1 3 2 3 3 1zm55-3l-1-3-1 2v2l-1 2c1 1 1 1 2-1l1-2zm6 1c-1-1-2 0-1 2h1v-2zm94 2l-1-1-1-1c0-1-2-4-3-3l5 6v-1zm-109-1l-1-1c-1-2-1-2-1 0-1 1 2 3 2 1zm337 0s1 0 0 0h-2l-1 1 3-1zm-396 0l-6-6-2-1-2-1 9 8h1zm79-2l-1-1v3c1 0 2-1 1-2zm302 2l-1-1v1h1zm-349-1l-2-2c-1-1-2 0 0 2h2zm31-1c-1-2-2-1-1 1h1v-1zm28 1l-1-1-1 1 1 1 1-1zm294 0l6-3h1c0-1-7 1-9 3h2zm-346-1v-1l-1 1 1 1v-1zm48-2c-2-1-2 0-1 1l1 1v-2zm312 2h-1v1l1-1zm-377-1l-3-3v2c1 2 3 3 3 1zm53-2h-1v2h1v-2zm-104 1l-7-6c-1 0-1 2 2 4 4 3 5 3 5 2zm-9 0c0-1-4-5-5-4l2 3 3 1zm64-2l-5-6 2 4 2 4h1v-2zm16-1h-1l-1 2c0 2 0 2 1 0l1-2zm154 3c0-1-16-16-17-15l3 4 8 7 6 4zm-243-1l-1-1-1 1 1 1 1-1zm120 0c0-2-1-2-2-1v1h2zm-38-1l-2-3v2c1 2 2 3 2 1zm30-1l-1-1c-1 0-2 2-1 3 1 0 2 0 2-2zm16 0c-1-1-2-1-1 1l1 1v-2zm-51-2l-3-3 4 6-1-3zm57 3l-2-3c-1 1 0 3 1 3h1zm-103-1l-4-4c-1 0-1 1 1 3s3 2 3 1zm15-1h-1c0 1 1 2 2 1l-1-1zm96-1l-1-1-3-2c-3-2-1 1 1 4 2 2 3 1 3-1zm-118 1l-2-2c-3-1-3 0-1 2h3zm27 0l-2-2v2h2zm5-1l-2-3c-1 1 0 2 1 3 1 3 3 3 1 0zm61 1l-1-1-1 1 1 1 1-1zm355-1l4-1 1-1c0-1-1-2-3-1l-3 3-2 1c0 1 1 1 3-1zm-348 0l-1-1v2l1-1zm-58 0l-1-1v1l1 1v-1zm24-2h-1v2c0 1 2-1 1-2zm365 2v-1l-1 1v1l1-1zm-334-1v-1h-2l1 2 1-1zm122 0l-8-9c-1 0-1 1 1 3l3 3c1 3 4 5 4 3zm-204-1h-1l1 1v-1zm91 1c0-2-1-2-1-1l1 1s1 0 0 0zm368-1l1-2 2-1 7-5 8-4 7-4h-2l-5 3-22 12 1 2 3-1zm-482-1c-1-1-2-2-3-1l4 3-1-2zm72 1l-2-3v3h2zm39 0l-1-1 1 2v-1zm-82-2l-1 1h1v-1zm73 1h-2l1 1 1-1zm345 0l13-7-7 2-2 1-2 1-3 1h1l1-1h-5v3l1 1 3-1zm-405-3h-2l1 1c1 2 2 1 1-1zm21 2l-1-1v1l1 1v-1zm5-1l-3-3h-2l2 2c1 2 3 2 3 1zm31 0l-1-2-1 2h2zm6 0l-1-1-1 1h2zm3 0h-1l1 1v-1zm350 0h-1-1l1 1 1-1zm-426-1h-1l2 1-1-1zm21 1l-3-5c-2 0-1 1 0 3l3 2zm64-1l-3-2c-1 1 1 3 2 3l1-1zm8-2c-1-1-2 0 0 2 1 1 1 2 1 0l-1-2zm84 3a1 1 0 00-1 0h1zm277-4l7-5-17 9 10-4zm-426 3l-1-1-1 1h2zm17-1l-1-2v-2l-1-2-1 2 1 2 1 2v1l1-1zm18 0h-1l1 1v-1zm373 1l-1-1-1 1h2zm-422-2v-1c1-1 0-2-1-1h-2l2 2 1 2v-2zm75-1c-1-2-2-2-2-1s2 4 3 3l-1-2zm-19 1l-2-1 2 2v-1zm352-1l5-4c0-2-1-2-4 0l-3 1h3c3-1 3 0-1 2l-4 2h-2v1c1 1 1 1 6-2zm-432 1v-1l-1 1 1 1v-1zm7 0a1 1 0 00-1 0l1 1v-1zm26-1h-1c0 1 1 2 2 1l-1-1zm-48 0h-1l1 1v-1zm55 1l-1-3-1 2 2 1zm-66-2l-1 1h1v-1zm103 0c-1-3-3-3-3-1l2 2 1-1zm36 1a1 1 0 00-1 0h1zm89 0l-2-1c-1-1-1-1 0 0l2 1zm-213-3l-3-2 5 5-2-3zm95 2l-1-1v1h1zm3-1l-1-1c-1-1-2 1-1 2s2 1 2-1zm-83 0l-1-1v2l1-1zm40 0l-1-2h-2v2h3zm1-1h-1l1 1v-1zm46-1c-1-2-2-2-2-1s2 4 3 3l-1-2zm-114 0h-1v1s0 1 0 0l1-1zm33-2c-1-2-1-4-2-3l1 4c1 4 2 3 1-1zm12-4l-1-7v-2c0-1 1-1 2 1s2 3 2 1l1-2c1 0 4 4 3 6v3l-1 3 3-3 4-3 2 6v2l1-1h2l2-2c0-2 1-3 1-1l1-1c1-2 3-1 4 2l2 5v1l1-4c-1-4 0-5 1-2 1 2 2 2 2 0v-3l-3-1c-4 0-5-1-3-1l1-1-6-2-4-1-13-6a285 285 0 01-29-14c-2-1-2-1-2 1-1 1 0 1 1 1h1l-1 2h4c4-1 5 0 3 1l-1 3 3-1 3-1c0 1-3 4-7 5l-10 7-2 2h3l10-3c7-4 13-6 13-5l1 1c1 0 2 2 1 4l1 2v6 7l1-1 1 1c-1 2 0 3 1 2l1-7zm-24-12l3-2-1 2-3 1 1-1zm83 18l-3-3v3c2 2 3 2 3 0zm14 0l-1-2c-2-1-2-1-1 2 1 2 2 2 2 0zm8 0h-1v1c1 1 1 1 1-1zm-96 0a1 1 0 00-2 0l1 1 1-1zm26-2c0-2-1-2-2 1l1 2 1-3zm-67-1c-1-1-1 0-1 1l1 2v-3zm27 3l-3-3c-1 1 0 1 1 2l2 1zm65-2c0-1 0-1 0 0 0 2 1 1 1 0l-1-2c-2 0-2 0-2 2 0 3 1 3 2 0zm140 2l-1-1-1 1h2zm-230-4v-3 3zm103 2v0zm-92 0l-1-1v2l1-1zm121 0l-1-1c-1 1 0 2 1 2v-1zm94 0c-1-3-4-5-4-4-1 0-1 1 1 3s3 3 3 1zm8 0l-1-2v2h1zm3-1l-1 1 1 1v-2zm-211 0l-1-1v1c1 2 2 1 1 0zm4 0l-1-1v1c0 2 0 2 1 0zm4-1c0-1-1-2-2-1v2c1 2 2 1 2-1zm152 0l2-7 3-11 2-7-2-3-3-3-2-1-6-2-4-1-2-1-9-3 1 4-2 8c-3 6-3 8-1 10a222 222 0 0020 18c1 2 2 2 3-1zm-86 0c0-1 0 0 0 0v0zm8 1l-1-2h-2l2 3 1-1zm35 0l-1-1v1h1zm-130-1h-1l1 1v-1zm203 1l-1-2-1 1 1 1h1zm-96-2l-4-3-1 1 2 1 1 1c1 2 2 2 2 0zm-76-2c-1-1-2 0-1 1h1v-1zm68 1l-2-2h-1l2 3 1-1zm-117-1h-1l1 1v-1zm43 0c-1-1-1 0-1 1h1v-1zm54 0l-1 1h1v-1zm12 1l-2-3c-1 1 1 4 1 4l1-1zm35 0l-11-10-9-6c0 1 3 4 5 4l6 6 2 2 3 2 4 2zm-117-1h-1v1l1-1zm103 0l-2-1 1 1h1zm19-1l5-11-6-4-4-3-9-6-2-1-2-1c-1-2-5-4-15-8-14-7-24-10-31-10h-3l5 2 5 2 5 2a250 250 0 0121 10 171 171 0 00-33-13c-4-1-1 1 4 3l7 3 5 2 6 3 4 1 2 1 3 1 1 2c1 2 0 1-4-1a247 247 0 00-32-10h-2c1 1 1 1-2 2h-3 12l3 1 3 1 2 1h1l5 3a236 236 0 0127 14c5 2 9 6 17 12l4 4 1-2zm-19-21h2l-1 1-1-1zm-8-5v-1l1 1h-1zm-85 25l-1-1v2l1 1v-2zm490 2l-1-1-1 1h2zm-526-7v-2 7c1 2 1 2 1-1l-1-4zm32 5c-1-1-2 0-1 1h1v-1zm12 0l-1-1v3l1-2zm-35-1c0-1-1-1-1 1h1v-1zm94 0c0-2-1-2-1-1l1 3v-2zm8 0l-3-3-2-1c-1-1-1-2-2-1l3 4 2 2c2 1 3 1 2-1zm419 0h-1l-1 1h1l1-1zm-490-2c-1-1-2 0-2 2h2v-2zm7 1l-1-2v2c0 2 1 1 1 0zm70-1h-2l2 2v-2zm94 2l-1-1v1l1 1v-1zm-113-1v-1 1c0 1 0 1 0 0zm-95-5c0-4-1-4-1 1l1 3v-4zm9 3h-1l-1 1h1l1-1zm82 1h-1-1l1 1 1-1zm26-1l-1-1c-1 1 0 3 1 3v-2zm-28 0l-2-2-2-2c-2-2-15-9-21-11h-2l2 1 3 2 1 2c0 3 1 3 2 1 0-2 0-2 1-1l2 2 2 1 2 1h1l2 2 4 3c1 1 2 2 3 1h2zm-83-1l-1-6v7l1-1zm41 0c-1-1-2 0-2 1h1l1-1zm64-1c-1-2-3-2-3-1 0 2 2 3 3 3v-2zm39 0l1-3-1 1a384 384 0 010 2zm-148 0v1s0 1 0 0v-1zm93 1a1 1 0 00-2 0l1 1 1-1zm106-2c-1-1-2 1-1 2h1v-2zm-101 0l-1-1v2c1 1 1 0 1-1zm-74-3l5-5c3-1 3-2 0-2-5 2-10 7-10 10l5-3zm47 3l-1-1-1 1 1 1 1-1zm17-2l1-3c0-2 0-2-1-1-1 2-1 2-5-1l-3-3-1-1-1 1h-2c-3 0-3-1 0-1 2 1 2 1 1-1l-8-4a506 506 0 01-25-9l1 1c2 1 2 1 0 0l-3-1-2-1-2 3h4l2 2-6-1h-9l3 1 10 2 10 3c2 0 2 0 1-1-2-1-1-1 0 0l1 1c0 1 3 3 4 2l4 1h4v-1l3 2 7 4 6 4 6 5v-3zm-32-17h-1 2v1l-1-1zm-6-2h2l1 1-3-1zm-49 20l-1-1v1h1zm7-1l-1 1 1 1v-2zm96 1l-1-3h-2v2l3 1zm-37-1l-6-2h-2l4 1c3 2 4 2 4 1zm44 0l-7-5 2 4c3 2 5 2 5 1zm88-2l-1-1v2l1-1zm-189-1h-1v1s0 1 0 0l1-1zm80 0v1c0 1 0 1 0 0v-1zm60 0l-5-3-6-5a190 190 0 00-29-19h-5l4 2 16 9 6 4 11 8c6 5 8 6 8 4zm-51-1l-2-1v1l1 1 1-1zm-6-2l-2-1v1h2zm8-1l-8-4-3-2 3 3c5 4 9 6 8 3zm54 0l-2-2-3-1 1 2 2 2 2-1zm-145 0h-1v1l1-1zm52 0l-2-1c-2-1-2-1 0 1h2zm-58 0c1-1 0-1-1-1l-2 1h3zm144-1l-3-2 2 2 2 1-1-1zm65 0a1 1 0 00-2 0l1 1 1-1zm8 0c2-1 2-2 1-3l-2-2h-3l-5 2c-4 1-2 2 3 1 3 0 3 0 2 1-5 1-1 2 4 1zm-172-1l-2-1c-2 0-2 0 0 1h2zm39 0l-2-1 1 1h1zm110-1c1 1 3 0 4-1l6-2 3-1c2-1 0-2-2-2l-7-1c-5 0-10 1-8 3v4c0 2 0 2 1 1l3-1zm-41 1l-14-9c-1 1 2 3 5 5l4 2 5 2zm-144-1l-2-1c-2 1-2 1 0 2l2-1zm9-1h-1l-1 1 2-1zm67-1l-3-2-4-3-12-5v1l9 6c10 5 13 5 10 3zm54 0l-5-3c-2-3-4-3-2-1l2 1 1 1 5 3-1-1zm5 0l-2-1 1 1c2 2 2 1 1 0zm-147 0v-1l-1 1v1l1-1zm4 0h-1-1l1 1 1-1zm36 0l-2-1v1l3 1-1-1zm41 0l-18-8 12 6 3 1c2 2 3 2 3 1zm143 0l1-2-3 2h2zm-67-3l1-9-2 1-1 1-2-1c-1 0-1 1 1 2 3 3 2 4-2 2l-3-2 4 4c3 2 3 3 0 2l-2-1 4 4 2-3zm-148 1l3-2c0-1 0-2 2-3l2-3v-1c2 0 2-3 1-6v-6-9l-1-10 1-7 1 14 1 16h2l3-2 2-2v-4a320 320 0 010-24l1 3v2l1 9 1 7 1 8 1-14v-13l2 11c0 6 2 2 2-5 0-2 1-1 1 3l2 8c1 2 1 2 1-3a137 137 0 000-11l1 19 1 6 1-8c0-11 1-12 1-1 0 8 1 11 2 5 1-7-2-19-5-23l-5-3-4-1h2c3 1 3 0 0-1h-4l-4 1-4-1 6-2c2 0 2-2 0-2l-7 2-4 2v1h1l-4 2c-4 1-6 2-5 4l2 16a505 505 0 001 21l-1 3-1-4a517 517 0 01-3-37l-2 3-1 2c-2 0-4 2-3 5l2 14a469 469 0 00-3-11v-4l-2 2c-3 6-3 9-3 14l1 8 1 3v2l3 4c3 5 5 5 10 3zm-3-5c-2-9-3-30-2-31 1 0 2 3 2 18a289 289 0 000 13zm8-4v-4l-1-10a9069 9069 0 001 14zm-17-2l-1-17 2 13-1 4zm24-19l-1-16 1-2 1 14a840 840 0 00-1 4zm198 30l4-2-9 1c-3 1-3 3 0 2l5-1zm-76-1l-2-1c-2-1-3-1 0 1h2zm46-2v-1l-1 2c1 1 1 1 1-1zm-42-2l-3-3h-1l2 2c1 2 2 4 3 3l-1-2zm79 2c0-1-6-2-7-1s-1 1 2 1h5zm-142-3l-2-1v1h2zm45 0l-1-1v1h1zm12-1c-2-2-3-2-7-3-3 0-3 0 1 2l7 3c1 0 1-1-1-2zm-81-1h-3l1 1c2 1 4 1 2-1zm-25-2v-1l-1-1-3-1-1-1c0-1 0-2-1-1-1 0 0 2 2 3v1l-4 2h8v-1zm93 0c0-1-7-5-11-5l-3-1 3 2 2 2c0 1 0 1 0 0l5 2 2 1 2-1zm-42-2h-2l2 1v-1zm48 0c0-2-8-5-9-4s5 4 8 5l1-1zm5 0c-1-3-2-4-4-4s-2 1 0 3c3 2 5 3 4 1zm-114 0l-1-1v1h1zm16-1l-2-1v1c1 1 3 2 2 0zm17 1h-1 1zm-23-2c0-1-1-2-3-2-1 0-1 1 1 2h2zm37 0c4 0 4-1 0-2-3-1-3-1-6 1l-4 2 3-1h7zm82 0h-1l1 1v-1zm-101-2l-2-1v-2c2-1 2-3 1-3l-2 2c0 1-1 2-3 2-1 1-1 1 2 2h4zm70 0l-3-2-2-2 3 1 4 1-1-1-5-2h-3-5l-6-4h-6l4 2c2 2 4 3 7 3s4 1 5 2l1 1 3 1 3 1 1-1zm-92-1l-2-1v1h2zm8 0h-3l1 1 2-1zm64 0l-3-1c-3-1-3 0-1 1h4zm33 0h-2l2 1v-1zm-79-2l-1-2v4l1-2zm45 0l-1-1v1h1zm37-2l-1-2v-1c3-3 0-5-10-9-14-4-25-7-25-5l4 2 3 2 3 1 3 1 3 1 2 1 3 1c2 1 6 3 4 3a300 300 0 01-31-10l6 3 2 1h1l11 5-6-1c-3-1-6-2-7-1l4 2a67 67 0 0028 8c3 1 3 0 3-2zm-20-5h1v1l-1-1zm-47 6h-1v1l1-1zm-33-2v-3h-1l-1 3c0 3-1 2-2-2l-1-2c0 3-1 3-1 2h-1v1c-1 2 1 3 4 3 2 0 2-1 3-2zm54 1h-2s-1 0 0 0h2zm-45-3v-3l-1 3c0 3 1 3 1 0zm20 1l-1-1-1 2 2-1zm32 0l-2-1v1c1 1 2 2 2 0zm-106-7c1-4 4-9 7-11 2-2 3-3 1-3-3 0-10 11-10 16a520 520 0 012-2zm71 3v0zm29 2c0-1-1-2-3-2-3-1-3 0-1 1 2 2 4 2 4 1zm-22-2c0-1 0-2-1-1s-2 3 0 3l1-2zm11 0l-2-1v1l2 1v-1zm-30-2c-2-1-2 0-1 1l1 1v-2zm21 0v-1l-1 1 1 2v-2zm92 1h-1v1l1-1zm5-1c0-1 0-1 0 0v0zm-123-3l-1-2v4l1 1v-3zm54 3l-3-2-6-2c-2 0-2 0-1 1 3 2 10 3 10 3zm41-1l-1-1v1a1 1 0 001 0zm-111-2c0-1 0-1 0 0v0zm55 0h-1l1 1s0 1 0 0v-1zm51-1l-5-2v1l5 1zm-64-4l-1-1-1 1 1 1 1-1zm18 0l-2-1c-1 1 1 2 3 2l-1-1zm33 1l-17-7c-3 0-4 0-2 1l2 1 1 1 8 2 8 2zm5 0l-2-1-2-1 2 1 2 1zm1-2l-4-2 4 2zm-57-1l-1-1-1 1h2zm75 0l-1-1v1h1zm-10-1c1-1 0-1-1-1-2 0-2 0-1 1h2zm-11-3c-1-2-1-2-4-2s-6-3-6-6l-1-2-1-3v-3c0-1-3 1-2 2h-1l-2 2h-1c-1-1 0-3 3-5 2-3 3-4 0-8v-1l-2 1-1 3v2l-2 2-1 3 1 1v1l-1 2v4l-1-1c-1-2-2-7-1-9v-2l1-2v-3l-1-2-1 4-1 1v4c1 1 0 3-1 2v6l1 1c-2 0-5-5-5-9-1-3-1-3-2-2s-1 0-1-1c0-3-1-3-2 0l-1 2v7l1-1 2-1v1c-2 2-2 2-1 4h-1l-2-1-1-1c0-1-1-2-1 0l-1-1c0-2-1-2-1 0v2l1 1-1 1-1 1c-2 1-2 1-3-1s-2-2-3 0l-2 2-1 1a713 713 0 018 0h18a204 204 0 0019 5c6 1 6 1 6-1zm-13-5l-2-4-1-3 1 1 1 2 1 5v-1zm-4-1l-1-2c0-1 1-1 2 1v2l-1-1zm-2-4v-1 1zm-14-4l-1-2-1-2c1-1 4 3 4 4h-2zm87 15l-1-1v1h1zm-106 0l-1-1v1h1zm26 0h-2 2zm49-1h-1v1h1v-1zm-53 0l-4-1c-1 1 0 2 3 2 2 0 2 0 1-1zm36 0l-1-1v1l1 1v-1zm34-4v-1l-1 3-1 2h1l1-4zm5 4h-1-1l1 1 1-1zm-124-3h-1l1 2v-2zm82 1l-1-1v1c1 2 2 1 1 0zm-86-2l-3-1h-2l2 1 2 1c1 2 1 1 1-1zm32 1h-1a1 1 0 001 0zm48-1l-1-2-1-3-2-3-1-2c1-1-2-4-2-3-1 1 0 6 2 8l1 2c-2 0-1 2 0 3h4zm29-4v5-2-3zm-143 2v-1l-5 3 5-2zm53 0c-1-1-1 0-1 1l1 1v-2zm7 2l-1-2c-2-1-2 0-1 1l2 1zm-66-2l4-1a38 38 0 009-4c3-1 3-1 2-2-2-1-8 1-12 4l-4 4 1-1zm144-1l-1 1 1 1v-2zm3-1v0zm-76 2v-1h-1l1 1zm51-5c-1-1-2 3-1 4l1-1v-3zm43 4a1 1 0 00-1 0v1l1-1zm-130-1l-2-1v1h2zm94-2h-1v1c0 1 1 1 1-1zm14-1c-1-1-2 1-2 2h1l1-2zm-103 1h-2l1 1 1-1zm109-2c1-1 2-2 1-3l-1 1-2 4h1l1-2zm-92 1l-2-3v4l2-1zm89-2c0-1 0-2-1-1 0 1 0 1 0 0h-1l-1 1 1 1 1 1v1l1-3zm-117 1h-2c-1 0-2 0 0 1 1 0 3 0 2-1zm16 0h-1v1c1 1 2 0 1-1zm30 0v-1l-1 1 1 2v-2zm66-1l-1-1-2 2 3-1zm-23 0h-1l1 1v-1zm3 1v-1l-1 1h1zm5 0l-1-1v1h1s1 0 0 0zm-91-1l-1-1c-3 0-3 0-2 1h3zm36 0v-1l-1 1 1 1v-1zm-31-1h-1s-1 0 0 0l1 1v-1zm94-1c1-2 0-2-1-1l-1 2 2-1zm-67 0v-1h-1l1 2v-1zm28-1v-1l-1 1c0 2 1 2 1 0zm23-1l1-2h1l-3-2h-1c-1-1-2-1-1 1l3 5v-2zm34-2h-1l1 1v-1zm-56 0c0-1 0-1 0 0v0zm-13-1l-1-2c-1 1 0 3 1 3l1 1-1-2zm31 1v-1l-1 1a1 1 0 001 0zm-58-1v0zm13-1l-1-1-1 1 1 2 1-2zm81-2c-2-3-3-3-3-1l2 2h2l1 1-2-2zm-38 0l-1-2-2-1 1 2c1 2 2 2 2 1zm-20-5v-1l-1 2-1 3 1 2 1-2v-4zm27 2v4-2-2zm-16 2l-1-1v2l1-1zm15 0l-2-2v2h2zm-30-2h-2c0 1 0 3 1 2l1-2zm8 1v-1l-1 1 1 1v-1zm26-2l-1-3-4-12c-2-2 2 12 4 14v2l1 1v-2zm-17-2c-1-1-1-2-1 0v2h1v-2zm7 2l-3-3 1 3h2zm44 0l-2-1 1 1h1zm-53-1l-1-1a1 1 0 000 2l1-1zm10-1v1c0 1 0 1 0 0v-1zm37 1h-1l1 1v-1zm-85-1l-1-1-1 1c1 2 2 2 2 0zm-18-1v0zm6 0v0zm44-1h-1l1 1v-1zm17 1v-1l-1 1h1zm-12-2l-1-1-1 1 1 1 1-1zm51 1c1 2 1 1 1-2l-1-2-1 2v2h1zm-54-1l-1-1v2l1-1zm18-1h-1l1 1v-1zm-14-1c0-1 0 0 0 0v0zm-37 1l-1-2h-1v1l2 1zm-6-3l-1-1v3l1-2zm47 2c0-1-1-2-2-1l1 1h1zm-52-1l-1-1h-1v1h2zm15 0l-3-2 2 3 1-1zm7-1v-2l-2-1v2c1 2 3 3 2 1zm87 0h-1v1l1-1zm-116-2v0zm9 1c-1-1-2 0-1 1h1v-1zm49-1l-1-1h-1l1 1h1zm-46-2l-4-4 1 2 1 3h1l1-1zm52 0l-2-2v2c0 1 2 2 2 0zm-66-2v0zm6 2v-1h-1c0 2 1 2 1 1zm16-1l-2-1 1 2 1-1zm91-2l-1-2c-2-1-3 0-3 2 1 2 1 2 3 1l1-1zm-80 1c-1-2-2-2-2-1l1 1h1zm9-2c0-2-2-2-1 0 0 2 2 3 2 2l-1-2zm-48 0l-1 1 1 1v-2zm15 1a1 1 0 000 1v-1zm16-1h-1v1h1v-1zm46 0l-1-2-1-4-1-3v5l1 4h2zm-35-1c2 0 1-2-1-2l-1 1c0 2 1 2 2 1zm-40-1v-2l-1 2 1 1v-1zm7-1l-1-1 2 3-1-2zm61 1c0-1 0-1 0 0v0zm-49 0l-1-1h-1l2 1zm-7-1l-1-1c0-1 0 0 0 0 0 1 0 2 1 1zm33-2v1l1 1-1-2zm-10 0l-2-1c-1 1 0 2 1 2l1-1zm13-1l-1-1 1 2v-1zm29 0h-1l1 2v-2zm-26-1c-2-1-2 0-1 1l1 1v-2zm9 1c0-1 0-1 0 0l1 1-1-1zm-37 0l-1-1 1 2v-1zm5-2v0zm51 1c0-1 0-2-1-1v2l1-1zm-63-2h-2l3 2-1-2zm39-2l-1-1v2c1 2 1 1 1-1zm-31 1h-1c0-1 0 0 0 0v1l1-1zm42 0l-1-2c-1-1-2 0-1 2h2zm-49-4l-1-2v2l2 2-1-2zm13 0l-1-1v3c1 0 2-1 1-2zm42 1h-1l-1 1h1l1-1zm-61 0l-1-2h-1v2h2zm37-1l-1-1-1 1 1 1 1-1zm30 0l-1-1-1 1 1 1 1-1zm-54-3l-1-2 2 4-1-2zm-13-1c0-1-1-2-2-1l1 2 1-1zm16 0c-1-1-1 0-1 1h1v-1zm27 1l-1-1h-1c1 2 2 2 2 1zm-5-3c0-1 0 0 0 0v0zm34 1l-1-1v1c-1 0 0 0 0 0h1zm4-6v2c0 5 1 5 1 1l-1-3zm-71 5l1-2-2-4c-2-3-3-5-2-1l2 5-1-2-3-2 4 7 1-1zm20 0l-1-1v2l1-1zm31-1h-1v1c1 1 2 0 1-1zm-65 1v-1h-1l1 1zm42-1h2l1-1-1-1h-2l-1 2 1 1v-1zm14-2l-1-2c-2 0-2 0 0 2 1 3 2 3 1 0zm-27 0v0zm-2 1l-2-4 1 4h1zm13-1l-1-1v2l1-1zm-44 0l-3-3v2l3 1zm8-1l-2-2v1c1 2 2 2 2 1zm49-1c1-2 0-3-2-3v1l1 2c0 2 1 2 1 0zm19 1l-1-2c-1-1-1 0-1 1l1 1h1zm-35-2l-1-1c-1 0-2 2 0 2h1v-1zm55 0l-1-1v2c1 1 1 1 1-1zm3 0l-1-1-1 1 1 1 1-1zm4-2v-2l-1 2 1 2v-2zm8 1l1-2-1-2-1 3 1 2v-1zm-87-1h-1l1 1v-1zm82-1l-1-1v3l1-2zm3 0l-1-1-1 2 1 1 1-2zm-108 1l-1-2c-2 0-2 0-1 1 1 2 2 2 2 1zm18-1v1h1l-1-1zm55 0c-1-2-2-3-2-1l2 2v-1zm-42 1l-1-2v2h1zm33-1l-2-3c-1 1 0 4 1 4l1-1zm69-2v-2c-1-2-2-1-2 3l1 1 1-2zm-124-1l-3-4c-2-2-3-3-2 0 2 3 5 8 6 7l-1-3zm50-1l-1-2v4c2 3 3 2 1-2zm9 4l-2-2 1 2h1zm-47-4c-2-2-2-1-1 2 1 1 1 2 2 1l-1-3zm12 2l-2-5v4c1 2 2 3 2 1zm16-1c-1 0-2 1-1 2h1v-2zm4-1l-1-1-1-1-1-1c-1 0-1 3 1 5h1l1-2zm26 2a1 1 0 00-2 0l1 1 1-1zm-40-2l-1 1 1 1v-2zm33 1c0-2-2-4-3-5-2-2-3-2-2 1l5 4zm-72-1c-1-3-3-6-3-4l3 4s1 0 0 0zm17-1l-2-5-1-1 2 6h1zm8-2v0zm41 2l-4-5v2l4 3zm11-1l-1-1 1 2v-1zm5 1v-1a1 1 0 000 1zm10 0l-1-1v1h1zm-49-1l-2-3v3h2zm82 0v-1c-1-2-2-1-1 0 0 2 1 2 1 1zm-38-1l-1-2-2-1c-2-2-3-1-3 1l2 1 2 1h2zm-92-2c-2-3-2-3-2-1l3 3-1-2zm16-1c-2-4-2-4-3-3-1 0 0 3 3 5 2 2 2 1 0-2zm42 3v-2h-2l1 2h1zm-18-2v-2c0-2-1-4-2-3v2l-1 1v3h1l2-1zm21 1l-1-1h-1l1 1h1zm-34-2l-1-1v2c1 1 1 0 1-1zm23 1c0-1-4-6-5-5l2 4c2 2 3 2 3 1zm31-1c-1-1-2 0-1 1h1v-1zm-29 0c0-2-6-9-7-8l7 9v-1zm64-2l-3-1 3 3v-2zm-17 2c0-2-2-1-2 0l1 1 1-1zm-65-2h-1l1 1 1 1-1-2zm40 0l-1-3c-1 0-2-1-2-3v-3c1 0 1 0 0 0l-3-2-4-2 4 6 1 2c1 3 3 7 5 7v-2zm4 2v-1h-1l1 1zm44-1l-2-2 1 1c0 2 2 2 1 1zm-67-4l1-3v-5-1l1 1 1 2c2 0 1-2-3-6l-3-2 1 2v1l-3-3-3-2c-1 1 2 5 5 8 2 2 2 2 1 3v1h-1v-2c1 0 1 0 0 0a598 598 0 01-4-3l-2-1c-1 2-1 2 1 4l6 8c1 3 2 1 2-2zm38 3c-1-2-2-2-2-1l2 2v-1zm34-3c-2-3-3-5-3-3l4 6-1-3zm-110 2l-1-1-1 1 1 1 1-1zm44-1c-1-2-3-3-3-1l2 3 1-2zm23 1l-3-2c-1 1 0 3 2 3l1-1zm16 0l-4-3c-1 0-1 1 1 3h3zm-73 0c0-1-2-6-3-5l3 5zm-22-3l-1 1 1 1v-2zm15 2h-1c0-1 0 0 0 0v1l1-1zm60 0c0-2-1-3-2-3v2c0 2 2 2 2 1zm27-1l1-1v-3h2v-2h1l2-2 1-3v-1l1-1v-2c1-1 2-4 1-5v-2-2c-2-1-3-1-2 1l-2 4c-2 4-2 4 0 5v1h-3l-3 3c-3 2-3 2-1 4v3l-1 3c1 2 3 2 3 0zm5 1l-1-1h-1v1h2zm6 0c0-1-3-3-4-2l1 1c1 2 3 2 3 1zm-53-4l-3-2 3 5h2l-2-3zm23 3l-2-2 2 3v-1zm-79-3c-1-1-1-2-1 0l1 2c1 2 2 0 0-2zm33 0l-1-1v3l1 2v-2-2zm78 1v-2c1-1-2-8-4-8l1 3v2c-1 1-1 1 1 4s3 4 2 1zm11 0l-2-1-1-2c-2-2-4-4-4-2s4 6 5 6h1c1 2 1 1 1-1zm-55 1l-2-2v1c1 2 2 2 2 1zm24-1l-4-5-1 2c-1 2 0 3 2 3l2 1c1 1 1 1 1-1zm-16 0l-3-4v-2l-1-2-1 2c-1 2-1 3 2 5 2 2 3 3 3 1zm9 0l-10-7c-2 0 5 6 7 7h3zm9 0l-1-1v1h1zm11 0l-1-3v3h1zm20-3c-1-2-1-3-2-2l1 2c2 3 2 3 1 0zm4 0v0zm-125 1v-1l-1-1v2l1 1v-1zm16 0l1-2c0-2-2-5-3-5v6c1 2 1 2 2 1zm-7-3l-1 1 1 1v-2zm17 1l-1-1v1h1zm55 0c0-2-2-2-2-1l1 1h1zm-51-1c0-1-1-2-1 0l1 1v-1zm86-3v-4-2c-1-2-2-1-2 2-1 2 0 3 1 5 1 3 3 3 1-1zm-66 2c0-1-12-16-14-16-1 0 1 4 7 10 6 7 7 8 7 6zm38 1l-1-2c-1-1-1-1 1-1l3-1 2-1-2-2-1-2 1-2v-1c1-1 2 1 2 2v2h3l1-1-1-3 1-1 2-3 1-2 1-3c-1-1-2 0-3 1l-3 3-2 1c0 2-1 2-2 2-1-1-1 0-2 1l-4 6-1 2v1l-1 1c0 2 3 4 5 3zm0-5v-1l2 1h-2zm-88 4l-1-2v1l1 1zm61-2c-3-3-6-3-5 0l6 2-1-2zm50 1c-1-2-1-2-1 0v1l1-1zm-34-1l-4-2c-1 1 2 4 3 4l1-2zm-57 0l-1-2v3l1-1zm12-1c1-1 0-3-1-3v2c0 2 0 3 1 1zm-4-3l-1-3v3l1 3v-3zm37 2l1-2v-1l1-1c2-1 2-4 0-8l-1-1v7l-1 2c0 2-2 4-3 2-1-1-2-1-1 1l1 1h2l1 1v-1zm54 1c0-2-1-3-2-2v1l2 1zm2-4c-1-2-2-4-2-2l3 6-1-4zm-66 3l-1-2v-2-1c-2 1-3-1-2-3l-1-1-1 1-1 2-2-2-9-9c-2 0 0 3 3 7l5 6 2 3c1 1 1 1 1-1v-2l2 2 4 2zm23-1l-1-1-3-2h-1l1 2c3 3 4 3 4 1zm29-1c2-1 2-2 1-3s-2-1-2 1l-1 2v1c0 1 1 1 2-1zm5-1h-2l1 2c1 1 1 0 1-2zm-112 0l-1-2 1 2c0 3 1 2 0 0zm4-1c-1-2-1-2-1 0l2 2-1-2zm78 1l1-2 1-2 2-3 1-3 1-2c1-1 0-2-1-4-2-3-2-5 0-2 2 2 2 1 0-2l-2-2-1 1c-1-1-1 3 1 6l1 2-2-2-1-2-2 2v8h-1-2-1c-1 1 0 2 2 2s2 1 2 2v1l-1 2h2zm1-12c-1-1-1-2 0 0v0zm-20 9c-1-2-2-3-2-1l3 3-1-2zm15 0c-2-1-3-1-2 1l2 1h1l-1-2zm-45-2l-1-3c-1-1-1 0-1 2 0 3 1 5 2 4v-3zm77 0l-1-3c-1-2-2-1-3 1l1 4c2 1 3 1 3-2zm11 1h-1c0 1 1 3 2 2l-1-2zm-116 1l-2-2 1 1 1 1zm6-1l-1-1v1l1 1v-1zm59 0v-1l-1 2 1-1zm47-1l-1-2v3c1 2 1 2 1-1zm-60-1h-1l1 1v-1zm2-1v1c0 1 0 1 0 0v-1zm6 1l-1-2v1l1 1zm-15-1c0-1-10-13-12-13v2l5 6c5 5 7 6 7 5zm22-1v-1h-1l1 1zm45-3l-1 1c0 2 1 3 2 1l-1-2zm-4 1l-1-1c0 1 0 3 1 2v-1zm-105-1l-2-1 2 3v-2zm45-1l-1-2h-1l-3-2-9-9c-2 0-1 3 6 9 6 6 6 7 7 6l1-2zm8 0v1l1 2-1-3zm49 2l-2-2v2h2zm10-1v0zm-115 1v-1h-1l1 1zm28-2l-2-6v5c2 4 3 4 2 1zm25 1l-2-1 1 2 1-1zm-43-1v0zm55 1v-1c-1-2-2-1-2 0l1 2 1-1zm36-1v-2h-2c-2 3 0 5 2 2zm-112-2l-2-2c-1 0-1 1 1 3 1 2 2 2 1-1zm28-1l-1-1 1 3 1 1-1-3zm37 2l-1-3c-1-3-1-1-1 2 1 2 2 3 2 1zm14-2v0zm4 0c0-2-1-2-1 1v1l1-2zm-59 0h-1l1 1v-1zm18 1l-1-2v2h1zm32-2l-1-2-1 2 1 2 1-2zm34 0l-1-1v2l1-1zm8-1h-1l1 1v-1zm10-3c0-2-2-2-2-1l1 3 1 1v-3zm-118 2l-2-2c-1 1 0 3 1 3l1-1zm5-2h-1l1 2c0 1 0 1 0 0v-2zm30 2l-1-2h-1v2h2zm68 0v-1l-1 1h1zm-81-2v1s0 1 0 0v-1zm26 0l-2-1-2-1-4-5-2-2c-1-2-1-3-1 0 0 1 0 2 2 3s3 1 3 3l1 2 2 1c1 2 3 2 3 0zm4 1v-1l-1 1 1 1v-1zm-33-3v1l1 1-1-2zm48-1c-1-2-1-3-1-1-1 2 0 5 1 5v-4zm37 0v2c0 2 0 2 0 0v-2zm7 0c-2-1-2 0-1 2s1 2 1 0v-2zm-55 0c-1-3-1-2-1 0l1 2v-2zm22 0c1 1 1-2-1-5-1-4-3-3-2 1l1 2-1 3h1l2-1zm-47 0l-1-1h-1v2c1 1 2 0 2-1zm4-1l-2-2h-1c0 2 1 4 2 3l1-1zm18-1h-2l1 2c1 1 2-1 1-2zm5 2v-1l-1 1 1 1v-1zm5-3v2c0 1 0 1 0 0v-2zm34 1v1c0 1 0 1 0 0v-1zm-72 0c0-1 0-1 0 0v0zm44-4l-1 1v3c0 1 1 1 1-1v-3zm20 2l-1-4-1-2c-1 1 0 3 1 5 2 4 3 5 1 1zm-90-1c-3-5-4-5-2-2l3 5-1-3zm86 1v1l1 1-1-2zm22 0v-1 3h1l-1-2zm7 0c-1-1-2 0-1 1h1v-1zm-107 0l-1-1-1-1-1-2c-2-1-1 1 0 3s3 3 3 1zm23-2l-1-2c-2 0-1 4 0 5 2 1 2-1 1-3zm51 2c0-1 0 0 0 0v0zm-38-3c-2-3-3-3-3-1l3 4c3 1 2-1 0-3zm12 3l-1-1v2l1-1zm63 0v-1l-1 1 1 1v-1zm-69-1l-2-5 2 6v-1zm30 0l-3-8 2 7 1 1zm35-3v2c1 2 1 1 1 0l-1-2zm-81-2l-2-2-2-2c-1-3-2-3-2-1l2 4 4 4c1 2 1 2 1 0l-1-3zm-20 2l-1 1h1v-1zm41 1l-2-4v2l1 2h1zm36-3l-1-1 2 4-1-3zm28 2l-2-4v3c1 3 2 3 2 1zm-59 0v-3c-1-3-2-3-2 0l2 4v-1zm49-2l-1-1 1 2v-1zm-84-2c-2-2-2-1-1 2l1 1v-3zm-3 2c0-1 0-1 0 0l1 1-1-1zm22-3l-1 1c0 2 1 3 2 1l-1-2zm-33 1l-1 1h1v-1zm27 0c-1-3-3-5-4-4l5 6-1-2zm74 1c0-1-1-3-2-2l1 2h1zm-60-1l-2-4v3c0 2 2 3 2 1zm67-3v2l1 2v-2l-1-2zm-78 2l-1-4-1-3v7l1 1 1-1zm40-1c-2-3-3-5-3-3l4 5-1-2zm-10-1c-1-3-4-11-5-10l4 11c0 2 1 2 1-1zm23 1l-1-1 1 2v-1zm20-1l-1 1c0 1 1 2 2 1l-1-2zm9-2l-1-2-1 1v3l1 2v-2l1-2zm-36 1h-1l2 2-1-2zm4 1l-2-3v3c1 1 2 2 2 0zm-66-1l-1-2v3c1 1 1 0 1-1zm28-3l-1-1 1 5c1 1 1 0 1-1l-1-3zm43-4c-2-5-2-5 0 1l1 5v2c1 2 1-5-1-8zm-51 4c-2-2-3-2-3 0 1 3 2 4 3 3v-3zm65 2h-1v1c0 1 0 1 0 0l1-1zm-78-2l-1-1 1 3h1l-1-2zm42 2c1-1-4-10-6-12l2 7 2 5c1 1 2 2 2 0zm-66-1h-1-1l1 1 1-1zm28-2l-1-1 1 2c1 2 2 1 0-1zm24 1l-1-2-1-1v-2l-1 2 1 1 1 2c1 2 2 2 1 0zm21-1l-1-3-1-1v3l3 3-1-2zm3 1zm7-5l-2-5v1a252 252 0 012 4zm-74 4c0-1 0 0 0 0v0zm33-1c-1-1-2 0-1 2h1v-2zm39 0h-1l1 1v-1zm-66-1h-1l2 1-1-1zm-13 0c-1-1-1 0-1 1h1v-1zm18-3v-4 4zm79 2v1s0 1 0 0v-1zm7 1v-1l-1 1h1zm-80-2l-3-4 1 5c0 2 2 1 2-1zm19 0c-1-3-1-3-2-1l3 3-1-2zm65 1l-1-1v2l1-1zm-78-2l-2-4 1 6c1 1 1 1 1-2zm6 0h-1c0 2 1 3 2 2l-1-2zm56-1l1-2-3-4v-1l-1-2c-1-2-1-2-1 0l1 5v7h1l2-3zm-58 1h-2l2 1v-1zm37-2l-1-1v3c1 2 1 1 1-2zm30 1c0-2-1-3-2-2v2c1 2 2 2 2 0zm-25 0h-1v1l1-1zm-23 1l-1-3c-1-2-2-2-2-1v3l3 1zm11-5c-2-5-5-9-5-7l5 9v1c0 1 1 2 2 1l-2-4zm-39 0c-1-1-1-1-1 1l1 2v-3zm85-1v-2l-1 2v3c1 2 1 2 1 0v-3zm-96 0v-4c-1 0-2 6-1 7 1 2 1 1 1-3zm25 2l-1-2v4l1-2zm81-2l2-5c0-2-1-1-2 1l-2 8 2-4zm-71 1c0-3-1-4-2-2s0 4 1 4l1-2zm23 0v-3h-1c-1 2 0 5 1 5v-2zm32-2v-1l-1 1v3l1-3zm9 1l-1 1 1 1v-2zm-19 0c0-2-1-5-2-4s1 6 2 6v-2zm-96 0l-2-4c-2-4-2-3 0 1 1 3 1 4 2 3zm23-2v1l1 1-1-2zm12 0c0-2 0-3-1-1-1 1 0 4 1 3v-2zm35 2l-2-4-1-4 2 1 1 2v-2c1-2 0-3-1-4l-1-5c0-3 0-5-1-4v6c0 5 0 5-1 3l-1-2v2c-1 2-1 3 1 7s4 6 4 4zm13-3v4l1-2-1-2zm34 1v0zm-121 1l-3-5 2 4c0 2 1 2 1 1zm108 0h-1v1l1-1zm-50-2c0-2 0-2-1-1v2c0 2 1 1 1-1zm24 2l-2-5v3l2 2zm2-5l-2-4 1 5c1 5 2 4 1-1zm-21 3v-1l-1 2 1-1zm-48-1c-1-1-1 0-1 1h1v-1zm100 1v-1l-1 1 1 1v-1zm-73-2l-1-2v4h1v-2zm9-1v0zm10 0h-1v1h1v-1zm29-1l-1-1 1 4v-3zm-85 2a1 1 0 00-1 0 1 1 0 001 0zm30-1v-3h-1l-1 2c1 2 1 3 2 1zm12-2v-2l-1 2c0 2 0 4 1 3v-3zm54 2v-1c-2 0-2 1-2 2 1 1 2 0 2-1zm23-7c-1-1-2 1-2 4 1 5 2 5 2 0v-4zm-85 6v-5-4l-1 2-1 3v3l1 2 1 1v-2zm17-3l-1-1v5c1 0 2-3 1-4zm50 3l-1-2v3l1-1zm7 0c0-2 0-2-1-1v2l1-1zm-26 0l-1-3 1-1 1-2c0-4-2-5-2-1 0 1 0 1 0 0l-1-3-1-2c0-1-1-3-2-2l1 3 1 5c0 4 1 8 3 6zm-73-3c-1-2-1-2-1 1 0 1 0 2 1 1v-2zm47 0l-1-1c-1 1 0 4 1 4v-3zm59-4l1-4c-1-1-2 1-3 4v4l2-4zm-27 2l-1-1v2c1 2 1 2 1-1zm3-4h-1v6c1 1 1-4 1-6zm-18 5c0-1-1-9-2-8v5c1 4 1 5 2 3zm30-2c0-1 0-2 1-1 1 0 2-1 1-3 0-3-1-3-1 0l-1 2-1 2 1 3v-3zm-103 1l-2-2-1-2v2c1 3 3 5 3 2zm23 1l-1-1v1c-1 0-1 0 0 0h1zm38-2l-1-1v3l1-2zm-19-9c2-3 2-5 1-5-2 0-5 13-4 15l1-3 2-7zm-14 9c0-1 0-2-1-1v1h1zm18-2c0-2 0-2-1-1l-1 3h1l1-2zm48-1l-1-3a1218 1218 0 011 3zm-73 1c2-3 1-3-1-1l-1 3 2-2zm-16 1v-1c-1-1-2-1-1 1h1zm52-7c0-4 0-7-1-6v14l1-8zm-43 5l-1 1v1l1-2zm36 1l1-5v-4l-1 3-1 7 1-1zm26-2c-1-2-2-2-2 0 0 1 1 3 2 2v-2zm-50 0l2-5-4 6c0 1 1 1 2-1zm36 0c-2-1-2-1-2 1h2v-1zm58 0v0zm-88 0l1-3-3 4 2-1zm55-1c0-2-1-3-2-1l1 3 1-2zm-75-4v-2l-1 3-1 3h1l1-4zm100 1c0-2-1-2-1 0 0 3 0 4 1 3v-3zm-13-3h-1l-2 1c-1-1-2 0 0 2l2 2 1-1v-4zm-96 5l-3-4 1 2 1 2h1zm18-5c0-1-1-1-1 1l-2 3v2l1-2 2-4zm86 2l-1-2v3l1-1zm-45-5v0zm9 5l-1-2-1-1v3l1 1 1-1zm-44 0v-2l-1-1v3h1zm10-2l1-3c-1-1-1 0-2 2v3l1-2zm38 1l-1-1a1 1 0 000 1h1zm29-1v-1l-1 1 1 1v-1zm8-4l-1-2-1 2 1 2 1-2zm-80-2l-1 1-1 2 1-1 1-2zm59 2l-1 1h1v-1zm-66 0l-1-1v1c-1 0-1 0 0 0h1zm42-1v-1l-1 1 1 1v-1zm6 1v-1h-1l1 1zm28-1l-1-1v2l1-1zm-14-1c0 1 0 2 1 1l-1-1zm19 0l-1-2-1 1 1 3 1-2zm-47 0v-3l-1 2c0 2 1 2 1 1zm20 0l-1-1v1l1 1v-1zm-52-3l1-2-1 2c-2 1-2 3-1 3l1-3zm-7-1c0-2 0-2-1-1v4l1-3zm51 0h-1v2h1v-2zm-58 1l-1-3c-1 1 1 4 1 4v-1zm33 0c0-1 0-2-1-1v2l1-1zm-13-2c2-2 2-3 1-3l-3 5 2-2zm17 0v0zm-10-2l1-1 1-6c0-2-1-1-2 1l-1 4c-1 2-2 5-1 6l2-4zm15 0c0-2 0-3-1-1v5l1-4zm13 1l1-3c-1-1-1 0-1 1l-2 3c-1 1-1 2 1 2l1-3zm14 2l-1-1c0-1 0 0 0 0 0 1 0 2 1 1zm17-1c1-1 0-2-1-1v2l1-1zm-7 0v-1l-1 1v1l1-1zm-66-3l1-3-3 5 2-2zm59 0l-1 1 1 1v-2zm-26-1v-2l-1 2v3l1-3zm17-1v-1l-2 4c1 1 2-1 2-3zm2 2l-1 1h1v-1zm20-1h-1v2h1v-2zm-47-1l-1-1v3l1-2zm-20 0l-1-2v3c1 1 2 0 1-1zm52-1c0-3 0-4-1-2l-1 2v2l2-2zm-18-1l-1-2v5l1-3zm-31 0h-1l1 1v-1zm4-1c2-1 3-7 3-8l-1 1-2 4c-2 4-2 7 0 3zm10 0v1c0 1 0 1 0 0v-1zm-4-2v0zm-11-1l-1-2v3l1-1zm3 1v-1l-1 1v1l1-1zm54-1v1s0 1 0 0v-1zm-11-1c0-1 0-1 0 0v0zm-9-1V8h-1l-1 3v2l2-2zm-33-2v0zm40-1V4l-1 3v4l1-3zm4-3V2l-1 5c1 1 1 0 1-2zm131 418c2-1 2-1 0-1v-1l6-1c5-1 5 1 0 2h-2c4 0 1 2-3 2-2-1-3-1-1-1zm23-24l-2-1h1c2 0 1-1 0-3s-1-3 1-1l1 1 1 2c2 1 1 3-2 2zm262-133h1s1 0 0 0l-1 1v-1zm-571-14l1-1v1h-1zm183-15h0s-1 0 0 0zm-34-48v-2-1-8c1 4 2 5 2 3s1-1 1 2c1 1 1 1-1 1-1-1-2-1-1 1v2l2 4-1-1c-2-2-2-2-1 0v1l-1-2zm4-1v-1h1l-1 1zm-6-7h-1l-1-2v-3 1l1 1c1-1 2 2 1 4v-1zm6 0v-3l1 2c0 2 0 2-1 1zm2-3v-3c0-3 1-2 1 1v2l-1 1v-1zm-3-2v-2l1 2c0 2-1 2-1 0zm7-2l1-1v2l-1-1zm-13 0v-1c1-1 1 0 1 1s-1 2-1 0zm15-4v-1 1zm-4-8v-2l1 2v1l-1-1zM192 14l1-1 1 1a1 1 0 01-2 0zm-1-3v-1c1-1 1 0 1 1h-1zm6-1c0-3 0-3 1-1v2l-1-1z" fill-rule="nonzero"/></svg>